<?xml version="1.0" encoding="UTF-8"?>
<svg width="159px" height="47px" viewBox="0 0 159 47" version="1.1" xmlns="http://www.w3.org/2000/svg" xmlns:xlink="http://www.w3.org/1999/xlink">
    <!-- Generator: Sketch 49 (51002) - http://www.bohemiancoding.com/sketch -->
    <title>Download_on_the_App_Store_Badge_US-UK_135x40</title>
    <desc>Created with Sketch.</desc>
    <defs></defs>
    <g id="Page-1" stroke="none" stroke-width="1" fill="none" fill-rule="evenodd">
        <g id="Landing" transform="translate(-842.000000, -4541.000000)" fill-rule="nonzero">
            <g id="Download_on_the_App_Store_Badge_US-UK_135x40" transform="translate(842.000000, 4541.000000)">
                <path d="M153.343133,47 L5.56971111,47 C2.49924444,47 0,44.4996 0,41.438725 L0,5.55305 C0,2.491 2.49924444,0 5.56971111,0 L153.343133,0 C156.412422,0 159,2.491 159,5.55305 L159,41.438725 C159,44.4996 156.412422,47 153.343133,47 Z" id="Shape" fill="#A6A6A6"></path>
                <path d="M158,41.4891646 C158,43.9813128 155.978865,46 153.478977,46 L5.52691863,46 C3.02821048,46 1,43.9813128 1,41.4891646 L1,5.51672425 C1,3.02575377 3.02821048,1 5.52691863,1 L153.477798,1 C155.978865,1 157.998821,3.02575377 157.998821,5.51672425 L158,41.4891646 Z" id="Shape" fill="#000000"></path>
                <g id="Group" transform="translate(14.000000, 7.000000)" fill="#FFFFFF">
                    <path d="M21.424,16.4347692 C21.3897273,12.5919615 24.5428182,10.7224231 24.687,10.6353846 C22.9012727,8.00873077 20.1334545,7.64984615 19.1608182,7.62123077 C16.8361818,7.37442308 14.5812727,9.02457692 13.3970909,9.02457692 C12.1892727,9.02457692 10.3657273,7.64507692 8.40036364,7.68561538 C5.87127273,7.72496154 3.50527273,9.20223077 2.20763636,11.4962308 C-0.470363636,16.1736538 1.52690909,23.0473077 4.09263636,26.8281154 C5.37609091,28.6797692 6.87581818,30.7472308 8.83881818,30.6745 C10.7592727,30.5946154 11.4766364,29.4392692 13.7941818,29.4392692 C16.0904545,29.4392692 16.7640909,30.6745 18.7660909,30.628 C20.8271818,30.5946154 22.1248182,28.768 23.3633636,26.8996538 C24.8465455,24.7773462 25.4421818,22.6872308 25.4658182,22.5799231 C25.4173636,22.5632308 21.463,21.0406538 21.424,16.4347692 Z" id="Shape"></path>
                    <path d="M17.6421818,5.13407692 C18.6750909,3.83088462 19.3818182,2.05792308 19.1856364,0.258730769 C17.6906364,0.3255 15.821,1.302 14.7443636,2.57657692 C13.7918182,3.69973077 12.9409091,5.54065385 13.1607273,7.27188462 C14.8400909,7.39826923 16.5643636,6.417 17.6421818,5.13407692 Z" id="Shape"></path>
                </g>
                <g id="Group" transform="translate(49.000000, 21.000000)" fill="#FFFFFF">
                    <path d="M13.657716,15.7546667 L10.9941975,15.7546667 L9.53518519,11.1941667 L4.46382716,11.1941667 L3.07401235,15.7546667 L0.480864198,15.7546667 L5.50530864,0.228666667 L8.60864198,0.228666667 L13.657716,15.7546667 Z M9.09537037,9.28083333 L7.77592593,5.22666667 C7.63635802,4.8125 7.37481481,3.83716667 6.98895062,2.30183333 L6.94203704,2.30183333 C6.78839506,2.96216667 6.54092593,3.9375 6.20080247,5.22666667 L4.90481481,9.28083333 L9.09537037,9.28083333 Z" id="Shape"></path>
                    <path d="M26.5788889,10.0193333 C26.5788889,11.9233333 26.0616667,13.4283333 25.0272222,14.5331667 C24.100679,15.5166667 22.9501235,16.0078333 21.5767284,16.0078333 C20.0942593,16.0078333 19.029321,15.4781667 18.3807407,14.4188333 L18.3338272,14.4188333 L18.3338272,20.3163333 L15.8333333,20.3163333 L15.8333333,8.24483333 C15.8333333,7.04783333 15.8016667,5.81933333 15.740679,4.55933333 L17.9397531,4.55933333 L18.079321,6.33383333 L18.1262346,6.33383333 C18.9601235,4.99683333 20.2256173,4.3295 21.9238889,4.3295 C23.2515432,4.3295 24.3598765,4.851 25.2465432,5.89516667 C26.1355556,6.9405 26.5788889,8.31483333 26.5788889,10.0193333 Z M24.0314815,10.1103333 C24.0314815,9.02066667 23.7851852,8.12233333 23.2902469,7.41533333 C22.7495679,6.678 22.0235802,6.30933333 21.1134568,6.30933333 C20.4965432,6.30933333 19.9359259,6.51466667 19.4351235,6.9195 C18.9331481,7.32783333 18.6047531,7.861 18.4511111,8.52133333 C18.3737037,8.82933333 18.335,9.08133333 18.335,9.27966667 L18.335,11.1463333 C18.335,11.9606667 18.5859877,12.6478333 19.087963,13.209 C19.5899383,13.7701667 20.242037,14.0501667 21.0442593,14.0501667 C21.9860494,14.0501667 22.7190741,13.6885 23.2433333,12.9675 C23.7687654,12.2453333 24.0314815,11.2933333 24.0314815,10.1103333 Z" id="Shape"></path>
                    <path d="M39.5235185,10.0193333 C39.5235185,11.9233333 39.0062963,13.4283333 37.970679,14.5331667 C37.0453086,15.5166667 35.8947531,16.0078333 34.521358,16.0078333 C33.0388889,16.0078333 31.9739506,15.4781667 31.3265432,14.4188333 L31.2796296,14.4188333 L31.2796296,20.3163333 L28.7791358,20.3163333 L28.7791358,8.24483333 C28.7791358,7.04783333 28.7474691,5.81933333 28.6864815,4.55933333 L30.8855556,4.55933333 L31.0251235,6.33383333 L31.072037,6.33383333 C31.9047531,4.99683333 33.1702469,4.3295 34.8696914,4.3295 C36.1961728,4.3295 37.3045062,4.851 38.1935185,5.89516667 C39.0790123,6.9405 39.5235185,8.31483333 39.5235185,10.0193333 Z M36.9761111,10.1103333 C36.9761111,9.02066667 36.728642,8.12233333 36.2337037,7.41533333 C35.6930247,6.678 34.9693827,6.30933333 34.0580864,6.30933333 C33.44,6.30933333 32.8805556,6.51466667 32.3785802,6.9195 C31.8766049,7.32783333 31.5493827,7.861 31.3957407,8.52133333 C31.3195062,8.82933333 31.2796296,9.08133333 31.2796296,9.27966667 L31.2796296,11.1463333 C31.2796296,11.9606667 31.5306173,12.6478333 32.0302469,13.209 C32.5322222,13.769 33.184321,14.0501667 33.9888889,14.0501667 C34.930679,14.0501667 35.6637037,13.6885 36.187963,12.9675 C36.7133951,12.2453333 36.9761111,11.2933333 36.9761111,10.1103333 Z" id="Shape"></path>
                    <path d="M53.996358,11.4006667 C53.996358,12.7213333 53.5354321,13.7958333 52.6100617,14.6253333 C51.5932099,15.5318333 50.1775926,15.9845 48.3585185,15.9845 C46.6790123,15.9845 45.3325926,15.6625 44.3133951,15.0173333 L44.8927778,12.9441667 C45.9905556,13.6045 47.1950617,13.9358333 48.5074691,13.9358333 C49.4492593,13.9358333 50.182284,13.7235 50.7088889,13.3011667 C51.2331481,12.8788333 51.4946914,12.3118333 51.4946914,11.6048333 C51.4946914,10.9748333 51.2788889,10.444 50.8461111,10.0135 C50.415679,9.583 49.6967284,9.18283333 48.6927778,8.813 C45.9600617,7.79916667 44.5948765,6.314 44.5948765,4.361 C44.5948765,3.08466667 45.0733951,2.03816667 46.0316049,1.22383333 C46.9862963,0.408333333 48.26,0.00116666667 49.852716,0.00116666667 C51.2730247,0.00116666667 52.4529012,0.247333333 53.3946914,0.7385 L52.7695679,2.76616667 C51.8899383,2.29016667 50.8953704,2.05216667 49.7823457,2.05216667 C48.902716,2.05216667 48.2154321,2.268 47.7228395,2.69733333 C47.3064815,3.08116667 47.097716,3.549 47.097716,4.10316667 C47.097716,4.71683333 47.3358025,5.22433333 47.814321,5.62333333 C48.230679,5.992 48.9871605,6.391 50.0849383,6.8215 C51.4278395,7.35933333 52.4141975,7.98816667 53.0487037,8.70916667 C53.6808642,9.42783333 53.996358,10.3273333 53.996358,11.4006667 Z" id="Shape"></path>
                    <path d="M62.2637037,6.426 L59.5075309,6.426 L59.5075309,11.8615 C59.5075309,13.244 59.9930864,13.9346667 60.9665432,13.9346667 C61.4133951,13.9346667 61.7840123,13.8961667 62.0772222,13.8191667 L62.1464198,15.708 C61.6538272,15.8911667 61.0052469,15.9833333 60.2018519,15.9833333 C59.214321,15.9833333 58.4425926,15.6835 57.8854938,15.085 C57.3307407,14.4853333 57.0516049,13.4796667 57.0516049,12.0668333 L57.0516049,6.42366667 L55.4096296,6.42366667 L55.4096296,4.557 L57.0516049,4.557 L57.0516049,2.50716667 L59.5075309,1.76983333 L59.5075309,4.557 L62.2637037,4.557 L62.2637037,6.426 Z" id="Shape"></path>
                    <path d="M74.699321,10.0648333 C74.699321,11.7856667 74.2043827,13.1985 73.2168519,14.3033333 C72.1812346,15.4408333 70.8066667,16.0078333 69.0931481,16.0078333 C67.4417901,16.0078333 66.127037,15.463 65.1465432,14.3733333 C64.1660494,13.2836667 63.6758025,11.9081667 63.6758025,10.2503333 C63.6758025,8.5155 64.1801235,7.0945 65.192284,5.98966667 C66.2020988,4.88366667 67.5649383,4.33066667 69.2784568,4.33066667 C70.9298148,4.33066667 72.258642,4.8755 73.2614198,5.96633333 C74.2208025,7.0245 74.699321,8.39066667 74.699321,10.0648333 Z M72.105,10.1453333 C72.105,9.11283333 71.8833333,8.22733333 71.4341358,7.48883333 C70.9098765,6.59516667 70.1604321,6.1495 69.189321,6.1495 C68.1841975,6.1495 67.420679,6.59633333 66.8964198,7.48883333 C66.4472222,8.2285 66.2255556,9.128 66.2255556,10.192 C66.2255556,11.2245 66.4472222,12.11 66.8964198,12.8473333 C67.4370988,13.741 68.1924074,14.1866667 69.167037,14.1866667 C70.1217284,14.1866667 70.8711728,13.7316667 71.4118519,12.824 C71.8727778,12.0715 72.105,11.1766667 72.105,10.1453333 Z" id="Shape"></path>
                    <path d="M82.8270988,6.74683333 C82.5796296,6.70133333 82.3157407,6.678 82.0389506,6.678 C81.159321,6.678 80.4790741,7.00816667 80.0005556,7.66966667 C79.5841975,8.253 79.3754321,8.99033333 79.3754321,9.8805 L79.3754321,15.7546667 L76.8761111,15.7546667 L76.8995679,8.085 C76.8995679,6.79466667 76.8679012,5.61983333 76.8057407,4.5605 L78.9837037,4.5605 L79.0751852,6.7025 L79.1443827,6.7025 C79.4082716,5.96633333 79.8246296,5.37366667 80.3946296,4.92916667 C80.9517284,4.529 81.5533951,4.3295 82.2019753,4.3295 C82.4330247,4.3295 82.6417901,4.34583333 82.8270988,4.375 L82.8270988,6.74683333 Z" id="Shape"></path>
                    <path d="M94.0101235,9.62733333 C94.0101235,10.073 93.9808025,10.4486667 93.918642,10.7555 L86.4171605,10.7555 C86.4464815,11.8615 86.8088889,12.7073333 87.5055556,13.2906667 C88.137716,13.8121667 88.9551852,14.0735 89.9591358,14.0735 C91.0698148,14.0735 92.0831481,13.8973333 92.9944444,13.5438333 L93.3861728,15.2705 C92.3212346,15.7325 91.0639506,15.9623333 89.6131481,15.9623333 C87.867963,15.9623333 86.4980864,15.4513333 85.5011728,14.4305 C84.5066049,13.4096667 84.0081481,12.0388333 84.0081481,10.3191667 C84.0081481,8.631 84.4714198,7.22516667 85.3991358,6.104 C86.3702469,4.907 87.6826543,4.3085 89.3340123,4.3085 C90.9560494,4.3085 92.1840123,4.907 93.0179012,6.104 C93.6782099,7.05483333 94.0101235,8.23083333 94.0101235,9.62733333 Z M91.6257407,8.98216667 C91.6421605,8.24483333 91.4791358,7.60783333 91.1401852,7.07 C90.7074074,6.37816667 90.0424074,6.03283333 89.1475309,6.03283333 C88.3300617,6.03283333 87.6650617,6.37 87.1572222,7.04666667 C86.7408642,7.5845 86.4933951,8.22966667 86.4171605,8.981 L91.6257407,8.981 L91.6257407,8.98216667 Z" id="Shape"></path>
                </g>
                <g id="Group" transform="translate(51.000000, 7.000000)" fill="#FFFFFF">
                    <path d="M7.1221519,4.510125 C7.1221519,5.83425 6.70659494,6.831 5.87665823,7.500375 C5.10793671,8.118 4.01548101,8.427375 2.60046835,8.427375 C1.8988481,8.427375 1.29846835,8.398125 0.795797468,8.339625 L0.795797468,1.10475 C1.45150633,1.0035 2.15783544,0.95175 2.92067089,0.95175 C4.26858228,0.95175 5.28451899,1.231875 5.96965823,1.792125 C6.73720253,2.4255 7.1221519,3.331125 7.1221519,4.510125 Z M5.82132911,4.54275 C5.82132911,3.684375 5.58353165,3.02625 5.10793671,2.56725 C4.63234177,2.109375 3.93778481,1.879875 3.02308861,1.879875 C2.63460759,1.879875 2.30381013,1.904625 2.02951899,1.956375 L2.02951899,7.4565 C2.18137975,7.479 2.45920253,7.489125 2.86298734,7.489125 C3.80711392,7.489125 4.53581013,7.23825 5.04907595,6.7365 C5.56234177,6.23475 5.82132911,5.5035 5.82132911,4.54275 Z" id="Shape"></path>
                    <path d="M14.0194557,5.666625 C14.0194557,6.48225 13.7757722,7.1505 13.2884051,7.67475 C12.7774937,8.213625 12.1005949,8.4825 11.2553544,8.4825 C10.4407215,8.4825 9.79207595,8.224875 9.30824051,7.707375 C8.82558228,7.191 8.58425316,6.539625 8.58425316,5.754375 C8.58425316,4.933125 8.83264557,4.25925 9.33178481,3.736125 C9.83092405,3.213 10.5019367,2.950875 11.3471772,2.950875 C12.1618101,2.950875 12.8163418,3.2085 13.3119494,3.724875 C13.7828354,4.226625 14.0194557,4.874625 14.0194557,5.666625 Z M12.7398228,5.704875 C12.7398228,5.2155 12.6291646,4.795875 12.4090253,4.446 C12.150038,4.023 11.7815696,3.8115 11.302443,3.8115 C10.8068354,3.8115 10.4301266,4.023 10.1711392,4.446 C9.94982278,4.795875 9.84034177,5.22225 9.84034177,5.72625 C9.84034177,6.215625 9.951,6.63525 10.1711392,6.985125 C10.4383671,7.408125 10.8103671,7.619625 11.2906709,7.619625 C11.761557,7.619625 12.1312025,7.40475 12.3972532,6.973875 C12.6256329,6.61725 12.7398228,6.19425 12.7398228,5.704875 Z" id="Shape"></path>
                    <path d="M23.2676582,3.058875 L21.5312658,8.362125 L20.4011392,8.362125 L19.6818608,6.05925 C19.4993924,5.484375 19.3510633,4.912875 19.2356962,4.345875 L19.2133291,4.345875 C19.1062025,4.928625 18.9578734,5.499 18.7671646,6.05925 L18.0031519,8.362125 L16.8600759,8.362125 L15.2272785,3.058875 L16.4951392,3.058875 L17.1225949,5.58 C17.2744557,6.17625 17.3992405,6.744375 17.4993038,7.282125 L17.5216709,7.282125 C17.6134937,6.838875 17.7653544,6.274125 17.9796076,5.59125 L18.7671646,3.06 L19.7725063,3.06 L20.5271013,5.53725 C20.7095696,6.141375 20.8578987,6.723 20.9720886,7.28325 L21.0062278,7.28325 C21.0898101,6.737625 21.2157722,6.156 21.3829367,5.53725 L22.0563038,3.06 L23.2676582,3.06 L23.2676582,3.058875 Z" id="Shape"></path>
                    <path d="M29.6634684,8.362125 L28.4297468,8.362125 L28.4297468,5.324625 C28.4297468,4.388625 28.0577468,3.920625 27.3113924,3.920625 C26.9452785,3.920625 26.6497975,4.048875 26.4202405,4.3065 C26.193038,4.564125 26.0776709,4.867875 26.0776709,5.2155 L26.0776709,8.361 L24.8439494,8.361 L24.8439494,4.57425 C24.8439494,4.1085 24.8286456,3.603375 24.7992152,3.056625 L25.8834304,3.056625 L25.9411139,3.88575 L25.9752532,3.88575 C26.1188734,3.628125 26.3331266,3.4155 26.614481,3.245625 C26.9488101,3.047625 27.3231646,2.9475 27.7328354,2.9475 C28.2508101,2.9475 28.6816709,3.10725 29.0242405,3.427875 C29.4503924,3.8205 29.6634684,4.406625 29.6634684,5.185125 L29.6634684,8.362125 Z" id="Shape"></path>
                    <polygon id="Shape" points="33.0656203 8.362125 31.8330759 8.362125 31.8330759 0.6255 33.0656203 0.6255"></polygon>
                    <path d="M40.329038,5.666625 C40.329038,6.48225 40.0853544,7.1505 39.5979873,7.67475 C39.0870759,8.213625 38.409,8.4825 37.5649367,8.4825 C36.7491266,8.4825 36.100481,8.224875 35.6178228,7.707375 C35.1351646,7.191 34.8938354,6.539625 34.8938354,5.754375 C34.8938354,4.933125 35.1422278,4.25925 35.6413671,3.736125 C36.1405063,3.213 36.811519,2.950875 37.6555823,2.950875 C38.4713924,2.950875 39.1247468,3.2085 39.6215316,3.724875 C40.0924177,4.226625 40.329038,4.874625 40.329038,5.666625 Z M39.0482278,5.704875 C39.0482278,5.2155 38.9375696,4.795875 38.7174304,4.446 C38.4596203,4.023 38.0899747,3.8115 37.6120253,3.8115 C37.1152405,3.8115 36.7385316,4.023 36.4807215,4.446 C36.2594051,4.795875 36.1499241,5.22225 36.1499241,5.72625 C36.1499241,6.215625 36.2605823,6.63525 36.4807215,6.985125 C36.7479494,7.408125 37.1199494,7.619625 37.6002532,7.619625 C38.0711392,7.619625 38.4396076,7.40475 38.7056582,6.973875 C38.9352152,6.61725 39.0482278,6.19425 39.0482278,5.704875 Z" id="Shape"></path>
                    <path d="M46.2998734,8.362125 L45.1921139,8.362125 L45.1002911,7.75125 L45.0661519,7.75125 C44.6870886,8.238375 44.1467468,8.4825 43.4451266,8.4825 C42.9212658,8.4825 42.4974684,8.321625 42.178443,8.002125 C41.8888481,7.711875 41.7440506,7.35075 41.7440506,6.922125 C41.7440506,6.274125 42.0265823,5.78025 42.5951772,5.43825 C43.1625949,5.09625 43.9607468,4.928625 44.9884557,4.9365 L44.9884557,4.8375 C44.9884557,4.138875 44.6046835,3.790125 43.835962,3.790125 C43.288557,3.790125 42.8058987,3.92175 42.3891646,4.18275 L42.1384177,3.40875 C42.654038,3.103875 43.2909114,2.950875 44.0419747,2.950875 C45.4923038,2.950875 46.2198228,3.682125 46.2198228,5.144625 L46.2198228,7.097625 C46.2198228,7.6275 46.2468987,8.049375 46.2998734,8.362125 Z M45.0190633,6.539625 L45.0190633,5.72175 C43.6582025,5.69925 42.9777722,6.055875 42.9777722,6.7905 C42.9777722,7.06725 43.0554684,7.27425 43.2143924,7.412625 C43.3733165,7.551 43.5757975,7.619625 43.8171266,7.619625 C44.0878861,7.619625 44.3409873,7.5375 44.5717215,7.374375 C44.8036329,7.210125 44.9460759,7.002 44.9990506,6.746625 C45.012,6.68925 45.0190633,6.6195 45.0190633,6.539625 Z" id="Shape"></path>
                    <path d="M53.3101899,8.362125 L52.2153797,8.362125 L52.1576962,7.5105 L52.123557,7.5105 C51.7739241,8.1585 51.1782532,8.4825 50.3412532,8.4825 C49.6725949,8.4825 49.1157722,8.231625 48.6743165,7.729875 C48.2328608,7.228125 48.0127215,6.57675 48.0127215,5.776875 C48.0127215,4.9185 48.2516962,4.22325 48.732,3.69225 C49.197,3.19725 49.7667722,2.94975 50.4448481,2.94975 C51.1900253,2.94975 51.7115316,3.189375 52.0081899,3.66975 L52.0317342,3.66975 L52.0317342,0.6255 L53.2666329,0.6255 L53.2666329,6.933375 C53.2666329,7.44975 53.2807595,7.925625 53.3101899,8.362125 Z M52.0317342,6.125625 L52.0317342,5.241375 C52.0317342,5.088375 52.019962,4.964625 51.9975949,4.870125 C51.9281392,4.586625 51.7786329,4.348125 51.5514304,4.15575 C51.3218734,3.963375 51.0452278,3.866625 50.7262025,3.866625 C50.2659114,3.866625 49.9056835,4.041 49.6408101,4.390875 C49.3782911,4.74075 49.2452658,5.187375 49.2452658,5.733 C49.2452658,6.25725 49.3712278,6.6825 49.6243291,7.009875 C49.891557,7.358625 50.2517848,7.533 50.7026582,7.533 C51.1076203,7.533 51.4313544,7.387875 51.6773924,7.0965 C51.9151899,6.827625 52.0317342,6.503625 52.0317342,6.125625 Z" id="Shape"></path>
                    <path d="M63.8615696,5.666625 C63.8615696,6.48225 63.6178861,7.1505 63.130519,7.67475 C62.6196076,8.213625 61.9438861,8.4825 61.0974684,8.4825 C60.2840127,8.4825 59.6353671,8.224875 59.1503544,7.707375 C58.6676962,7.191 58.4263671,6.539625 58.4263671,5.754375 C58.4263671,4.933125 58.6747595,4.25925 59.1738987,3.736125 C59.673038,3.213 60.3440506,2.950875 61.1904684,2.950875 C62.0039241,2.950875 62.6596329,3.2085 63.1540633,3.724875 C63.6249494,4.226625 63.8615696,4.874625 63.8615696,5.666625 Z M62.5831139,5.704875 C62.5831139,5.2155 62.4724557,4.795875 62.2523165,4.446 C61.9921519,4.023 61.6248608,3.8115 61.144557,3.8115 C60.6501266,3.8115 60.2734177,4.023 60.0132532,4.446 C59.7919367,4.795875 59.6824557,5.22225 59.6824557,5.72625 C59.6824557,6.215625 59.7931139,6.63525 60.0132532,6.985125 C60.280481,7.408125 60.652481,7.619625 61.1327848,7.619625 C61.6036709,7.619625 61.9744937,7.40475 62.2405443,6.973875 C62.4677468,6.61725 62.5831139,6.19425 62.5831139,5.704875 Z" id="Shape"></path>
                    <path d="M70.4951772,8.362125 L69.2626329,8.362125 L69.2626329,5.324625 C69.2626329,4.388625 68.8906329,3.920625 68.1431013,3.920625 C67.7769873,3.920625 67.4815063,4.048875 67.2531266,4.3065 C67.0247468,4.564125 66.910557,4.867875 66.910557,5.2155 L66.910557,8.361 L65.6756582,8.361 L65.6756582,4.57425 C65.6756582,4.1085 65.6615316,3.603375 65.6321013,3.056625 L66.7151392,3.056625 L66.7728228,3.88575 L66.806962,3.88575 C66.9517595,3.628125 67.1660127,3.4155 67.4461899,3.245625 C67.7816962,3.047625 68.1548734,2.9475 68.5657215,2.9475 C69.082519,2.9475 69.5133797,3.10725 69.8559494,3.427875 C70.2832785,3.8205 70.4951772,4.406625 70.4951772,5.185125 L70.4951772,8.362125 Z" id="Shape"></path>
                    <path d="M78.7980759,3.942 L77.4395696,3.942 L77.4395696,6.51825 C77.4395696,7.173 77.6808987,7.500375 78.1588481,7.500375 C78.3801646,7.500375 78.5638101,7.482375 78.7086076,7.44525 L78.7403924,8.339625 C78.4967089,8.427375 78.1765063,8.47125 77.7821392,8.47125 C77.2947722,8.47125 76.9157089,8.3295 76.6414177,8.046 C76.3659494,7.7625 76.2293924,7.2855 76.2293924,6.616125 L76.2293924,3.942 L75.4182911,3.942 L75.4182911,3.058875 L76.2293924,3.058875 L76.2293924,2.086875 L77.4383924,1.738125 L77.4383924,3.05775 L78.7968987,3.05775 L78.7968987,3.942 L78.7980759,3.942 Z" id="Shape"></path>
                    <path d="M85.3292658,8.362125 L84.0943671,8.362125 L84.0943671,5.347125 C84.0943671,4.3965 83.7223671,3.920625 82.9771899,3.920625 C82.4050633,3.920625 82.0142278,4.19625 81.7999747,4.7475 C81.763481,4.863375 81.7422911,5.005125 81.7422911,5.171625 L81.7422911,8.361 L80.5097468,8.361 L80.5097468,0.6255 L81.7422911,0.6255 L81.7422911,3.821625 L81.7658354,3.821625 C82.1543165,3.24 82.7111392,2.94975 83.4327722,2.94975 C83.9436835,2.94975 84.3663038,3.1095 84.7018101,3.430125 C85.1197215,3.8295 85.3292658,4.4235 85.3292658,5.20875 L85.3292658,8.362125 Z" id="Shape"></path>
                    <path d="M92.0664684,5.459625 C92.0664684,5.671125 92.0499873,5.848875 92.020557,5.994 L88.3205696,5.994 C88.3370506,6.51825 88.5136329,6.917625 88.8562025,7.194375 C89.1693418,7.441875 89.5731266,7.565625 90.067557,7.565625 C90.614962,7.565625 91.1141013,7.482375 91.5637975,7.31475 L91.7568608,8.13375 C91.2306456,8.352 90.6114304,8.461125 89.8945063,8.461125 C89.0351392,8.461125 88.3582405,8.21925 87.868519,7.7355 C87.376443,7.25175 87.1327595,6.602625 87.1327595,5.788125 C87.1327595,4.98825 87.359962,4.32225 87.8178987,3.79125 C88.2958481,3.22425 88.9421392,2.94075 89.7579494,2.94075 C90.5561013,2.94075 91.1623671,3.22425 91.572038,3.79125 C91.9028354,4.24125 92.0664684,4.798125 92.0664684,5.459625 Z M90.8892532,5.15475 C90.8986709,4.804875 90.817443,4.503375 90.6502785,4.249125 C90.4360253,3.92175 90.1099367,3.7575 89.668481,3.7575 C89.2658734,3.7575 88.9374304,3.91725 88.6866835,4.237875 C88.4818481,4.49325 88.3605949,4.798125 88.3205696,5.15475 L90.8892532,5.15475 Z" id="Shape"></path>
                </g>
            </g>
        </g>
    </g>
</svg>