<?xml version="1.0" encoding="UTF-8"?>
<svg width="72px" height="73px" viewBox="0 0 72 73" version="1.1" xmlns="http://www.w3.org/2000/svg" xmlns:xlink="http://www.w3.org/1999/xlink">
    <!-- Generator: Sketch 49 (51002) - http://www.bohemiancoding.com/sketch -->
    <title>Compass - simple-line-icons</title>
    <desc>Created with Sketch.</desc>
    <defs></defs>
    <g id="Page-1" stroke="none" stroke-width="1" fill="none" fill-rule="evenodd">
        <g id="Landing" transform="translate(-244.000000, -1636.000000)" fill="#76C91C">
            <path d="M295.539062,1656.1875 C295.96094,1656 296.406248,1655.94141 296.875,1656.01172 C297.343752,1656.08203 297.742186,1656.28125 298.070312,1656.60938 C298.351564,1656.9375 298.527343,1657.33594 298.597656,1657.80469 C298.667969,1658.27344 298.585939,1658.71875 298.351562,1659.14062 L287.734375,1680.02344 C287.640625,1680.21094 287.51172,1680.375 287.347656,1680.51562 C287.183593,1680.65625 287.007813,1680.77344 286.820312,1680.86719 L265.304688,1689.79688 C265.164062,1689.89063 265.023438,1689.94922 264.882812,1689.97266 C264.742187,1689.99609 264.578126,1690.00781 264.390625,1690.00781 C264.109374,1690.00781 263.839845,1689.94922 263.582031,1689.83203 C263.324217,1689.71484 263.101563,1689.5625 262.914062,1689.375 C262.585936,1689.04687 262.386719,1688.66016 262.316406,1688.21484 C262.246093,1687.76953 262.304687,1687.33594 262.492188,1686.91406 L272.617188,1666.59375 C272.710938,1666.40625 272.839843,1666.23047 273.003906,1666.06641 C273.16797,1665.90234 273.343749,1665.77344 273.53125,1665.67969 L295.539062,1656.1875 Z M269.171875,1683.25781 L281.476562,1678.47656 L275.289062,1670.74219 L269.171875,1683.25781 Z M285.132812,1675.875 L291.320312,1663.14844 L278.875,1668 L285.132812,1675.875 Z M280,1636.5 C284.968775,1636.5 289.644509,1637.43749 294.027344,1639.3125 C298.410178,1641.18751 302.230452,1643.75389 305.488281,1647.01172 C308.74611,1650.26955 311.312491,1654.08982 313.1875,1658.47266 C315.062509,1662.85549 316,1667.53123 316,1672.5 C316,1677.46877 315.062509,1682.14451 313.1875,1686.52734 C311.312491,1690.91018 308.74611,1694.73045 305.488281,1697.98828 C302.230452,1701.24611 298.410178,1703.81249 294.027344,1705.6875 C289.644509,1707.56251 284.968775,1708.5 280,1708.5 C275.031225,1708.5 270.355491,1707.56251 265.972656,1705.6875 C261.589822,1703.81249 257.769548,1701.24611 254.511719,1697.98828 C251.25389,1694.73045 248.687509,1690.91018 246.8125,1686.52734 C244.937491,1682.14451 244,1677.46877 244,1672.5 C244,1667.53123 244.937491,1662.85549 246.8125,1658.47266 C248.687509,1654.08982 251.25389,1650.26955 254.511719,1647.01172 C257.769548,1643.75389 261.589822,1641.18751 265.972656,1639.3125 C270.355491,1637.43749 275.031225,1636.5 280,1636.5 Z M280,1704.07031 C284.359397,1704.07031 288.4492,1703.23829 292.269531,1701.57422 C296.089863,1699.91015 299.417955,1697.64845 302.253906,1694.78906 C305.089858,1691.92967 307.339835,1688.58986 309.003906,1684.76953 C310.667977,1680.9492 311.5,1676.8594 311.5,1672.5 C311.5,1668.1406 310.667977,1664.0508 309.003906,1660.23047 C307.339835,1656.41014 305.089858,1653.08205 302.253906,1650.24609 C299.417955,1647.41014 296.089863,1645.16016 292.269531,1643.49609 C288.4492,1641.83202 284.359397,1641 280,1641 C275.640603,1641 271.5508,1641.83202 267.730469,1643.49609 C263.910137,1645.16016 260.582045,1647.41014 257.746094,1650.24609 C254.910142,1653.08205 252.660165,1656.41014 250.996094,1660.23047 C249.332023,1664.0508 248.5,1668.1406 248.5,1672.5 C248.5,1676.8594 249.332023,1680.9492 250.996094,1684.76953 C252.660165,1688.58986 254.910142,1691.92967 257.746094,1694.78906 C260.582045,1697.64845 263.910137,1699.91015 267.730469,1701.57422 C271.5508,1703.23829 275.640603,1704.07031 280,1704.07031 Z" id="Compass---simple-line-icons"></path>
        </g>
    </g>
</svg>