<?xml version="1.0" encoding="UTF-8"?>
<svg width="196px" height="40px" viewBox="0 0 196 40" version="1.1" xmlns="http://www.w3.org/2000/svg" xmlns:xlink="http://www.w3.org/1999/xlink">
    <!-- Generator: Sketch 49.2 (51160) - http://www.bohemiancoding.com/sketch -->
    <title>full_logo</title>
    <desc>Created with Sketch.</desc>
    <defs>
        <linearGradient x1="50.0102768%" y1="99.9750581%" x2="50.0102768%" y2="-0.0035704599%" id="linearGradient-1">
            <stop stop-color="#76CA1C" offset="0%"></stop>
            <stop stop-color="#90DB27" offset="100%"></stop>
        </linearGradient>
        <linearGradient x1="0%" y1="50.0306373%" x2="100%" y2="50.0306373%" id="linearGradient-2">
            <stop stop-color="#76CA1C" offset="0%"></stop>
            <stop stop-color="#61A617" offset="70%"></stop>
        </linearGradient>
        <linearGradient x1="5355%" y1="13966%" x2="5355%" y2="0%" id="linearGradient-3">
            <stop stop-color="#76CA1C" offset="0%"></stop>
            <stop stop-color="#90DB27" offset="100%"></stop>
        </linearGradient>
        <linearGradient x1="2331%" y1="10115%" x2="10711%" y2="10115%" id="linearGradient-4">
            <stop stop-color="#76CA1C" offset="0%"></stop>
            <stop stop-color="#61A617" offset="70%"></stop>
        </linearGradient>
        <linearGradient x1="50.0901678%" y1="99.9408136%" x2="50.0901678%" y2="-0.030293243%" id="linearGradient-5">
            <stop stop-color="#18539F" offset="0%"></stop>
            <stop stop-color="#3C92E2" offset="100%"></stop>
        </linearGradient>
        <linearGradient x1="80938%" y1="17408%" x2="80938%" y2="12939%" id="linearGradient-6">
            <stop stop-color="#18539F" offset="0%"></stop>
            <stop stop-color="#3C92E2" offset="100%"></stop>
        </linearGradient>
        <linearGradient x1="70075%" y1="14857%" x2="71543%" y2="14857%" id="linearGradient-7">
            <stop stop-color="#76CA1C" offset="0%"></stop>
            <stop stop-color="#90DB27" offset="100%"></stop>
        </linearGradient>
        <linearGradient x1="71746%" y1="15521%" x2="73384%" y2="15521%" id="linearGradient-8">
            <stop stop-color="#76CA1C" offset="0%"></stop>
            <stop stop-color="#90DB27" offset="100%"></stop>
        </linearGradient>
    </defs>
    <g id="Page-1" stroke="none" stroke-width="1" fill="none" fill-rule="evenodd">
        <g id="Landing" transform="translate(-120.000000, -6126.000000)" fill-rule="nonzero">
            <g id="Footer" transform="translate(120.000000, 6126.000000)">
                <g id="full_logo">
                    <g id="_Group_">
                        <g id="_Group_2" transform="translate(24.193059, 3.373830)" fill="#3C92E2">
                            <g id="_Group_3">
                                <path d="M13.7425617,16.5227721 L14.1631139,19.6064531 C12.527633,20.3127083 10.4723536,20.6658358 7.99727555,20.6658358 C5.06999082,20.6658358 3.00943561,20.0398029 1.81560991,18.7877369 C0.621784217,17.535671 0.0248713687,15.3891651 0.0248713687,12.3482193 C0.0248713687,9.28778024 0.62781364,7.130778 1.83369818,5.87721257 C3.03958272,4.62364714 5.11596517,3.99761416 8.06284552,3.99911364 C10.4746146,3.99911364 12.434177,4.3312485 13.9415327,4.99551822 L13.426017,7.94874444 C11.1016746,7.90675899 9.58452107,7.88501653 8.87455655,7.88351705 C7.41091419,7.88351705 6.40475427,8.19390944 5.85607681,8.81469424 C5.30739934,9.43547903 5.03306061,10.612571 5.03306061,12.3459701 C5.03306061,14.0793692 5.30739934,15.2564611 5.85607681,15.8772459 C6.40475427,16.4980307 7.41091419,16.8084231 8.87455655,16.8084231 C10.501886,16.8242086 12.1283833,16.7287669 13.7425617,16.5227721 Z" id="_Compound_Path_"></path>
                                <rect id="_Path_" x="17.1974209" y="4.44895769" width="4.74590935" height="15.8300123"></rect>
                                <path d="M32.1745069,7.62710594 L32.1745069,15.1102618 C32.1745069,15.7100538 32.3033858,16.1276591 32.5611437,16.3630775 C32.8189015,16.5984959 33.2711082,16.716205 33.9177638,16.716205 L35.9526939,16.716205 L36.4682096,20.0180604 C35.2412221,20.4469117 33.7459252,20.6605877 31.9823191,20.6590882 C30.5397797,20.6590882 29.4205681,20.2579772 28.6246843,19.4557553 C27.8288005,18.6535334 27.4301049,17.5364207 27.4285976,16.1044171 L27.4285976,7.62710594 L24.620394,7.62710594 L24.620394,4.60865233 L27.4285976,4.44895769 L27.4285976,0.0179937622 L32.176768,0.0179937622 L32.176768,4.44895769 L36.5993495,4.44895769 L36.5993495,7.62710594 L32.1745069,7.62710594 Z" id="_Compound_Path_2"></path>
                                <path d="M55.1579126,4.44895769 L49.5053288,20.503892 C49.2152253,21.3324601 48.8401794,22.1291314 48.3861172,22.8813178 C47.9115277,23.6501371 47.3418174,24.3566652 46.6903421,24.9843388 C45.9671787,25.6790124 45.0871737,26.1911449 44.1240691,26.477821 C43.0206317,26.8051269 41.8593452,26.8925738 40.7189526,26.7342321 L40.3323159,23.9407006 C41.6241197,23.5988191 42.6355553,23.1549729 43.3666228,22.6091622 C44.1194959,22.0362078 44.7093893,21.2780817 45.0782252,20.4094247 L45.1437952,20.2812192 L44.2393818,20.2812192 C43.443498,20.2812192 42.9272287,19.8958528 42.6905738,19.12512 L37.4901967,4.45120691 L42.5910883,4.45120691 L45.5598253,14.694156 C45.7542742,15.4438961 45.9155613,16.2356217 46.0436865,17.0693326 L46.4642388,17.0693326 C46.529055,16.8129215 46.636831,16.4118106 46.7875665,15.8659998 L47.1108943,14.694156 L50.0502379,4.45120691 L55.1579126,4.44895769 Z" id="_Compound_Path_3"></path>
                                <path d="M69.7144464,18.0319989 L70.0061197,19.8628642 C68.2667994,20.4270915 66.444986,20.6984796 64.6158158,20.6658358 C61.9025756,20.6658358 59.9822045,20.0502992 58.8547024,18.819226 C57.7272004,17.5881528 57.161942,15.4633894 57.1589273,12.4449358 C57.1589273,9.42648215 57.723432,7.30696692 58.8524414,6.08639005 C59.9814508,4.86581318 61.9131271,4.25552475 64.6474703,4.25552475 C66.7125476,4.25552475 68.4015396,4.5014395 69.7144464,4.993269 L69.3594641,6.75890691 C67.9395351,6.62995162 66.5188524,6.56547397 65.097416,6.56547397 C63.2041772,6.56547397 61.8912704,6.9830792 61.1586956,7.81828966 C60.4261207,8.65350012 60.060587,10.1949657 60.0620943,12.4426865 C60.0620943,14.7114 60.4276281,16.263362 61.1586956,17.0985725 C61.8897631,17.933783 63.2026699,18.3513882 65.097416,18.3513882 C66.6424429,18.3648262 68.1861601,18.2580375 69.7144464,18.0319989 Z" id="_Compound_Path_4"></path>
                                <path d="M80.1084175,4.25552475 C82.8216577,4.25552475 84.7314773,4.87630955 85.8378764,6.11787914 C86.9442755,7.35944872 87.4989824,9.47896396 87.5019971,12.4764248 C87.5019971,15.4753852 86.9480439,17.5949004 85.8401374,18.8349705 C84.732231,20.0750407 82.8216577,20.694326 80.1084175,20.6928265 C77.4177876,20.6928265 75.5132437,20.0720417 74.3947858,18.8304721 C73.2763279,17.5889025 72.7170989,15.4693873 72.7170989,12.4719264 C72.7170989,9.47296604 73.2763279,7.3534508 74.3947858,6.11338069 C75.5132437,4.87331059 77.4177876,4.25402527 80.1084175,4.25552475 Z M83.6763284,7.82053888 C83.0191213,6.98532842 81.8298177,6.56772319 80.1084175,6.56772319 C78.3870173,6.56772319 77.2037431,6.98532842 76.5585949,7.82053888 C75.9134466,8.65574934 75.5908725,10.2077113 75.5908725,12.4764248 C75.5908725,14.7451384 75.9134466,16.2971003 76.5585949,17.1323108 C77.2037431,17.9675213 78.3870173,18.3851265 80.1084175,18.3851265 C81.8298177,18.3851265 83.0191213,17.9675213 83.6763284,17.1323108 C84.3320281,16.2971003 84.6606316,14.7451384 84.662139,12.4764248 C84.6636463,10.2077113 84.3350428,8.65574934 83.6763284,7.82053888 Z" id="_Compound_Path_5"></path>
                                <path d="M93.8057585,5.73776091 L94.31223,7.11428371 C96.8566464,5.20994389 99.2020918,4.25702423 101.348566,4.25552475 C104.189932,4.25552475 105.610615,5.68977754 105.610615,8.55828313 L105.610615,20.27897 L102.877025,20.27897 L102.877025,9.32976568 C102.877025,8.30262176 102.705186,7.58587023 102.361509,7.1795111 C102.017832,6.77315197 101.435993,6.56922267 100.615991,6.56772319 C99.7187211,6.57594901 98.8333548,6.77294667 98.018064,7.1457728 C96.8232674,7.70574369 95.664188,8.33821655 94.5473775,9.03961627 L94.5473775,20.2857176 L91.7979608,20.2857176 L91.7979608,5.73776091 L93.8057585,5.73776091 Z" id="_Compound_Path_6"></path>
                                <path d="M112.561032,5.73776091 L113.067503,7.11428371 C115.60589,5.20994389 117.951335,4.25702423 120.103839,4.25552475 C122.939175,4.25552475 124.356843,5.68977754 124.356843,8.55828313 L124.356843,20.27897 L121.620993,20.27897 L121.620993,9.32976568 C121.620993,8.30262176 121.449154,7.58587023 121.105477,7.1795111 C120.7618,6.77315197 120.179961,6.56922267 119.359959,6.56772319 C118.462689,6.57594901 117.577323,6.77294667 116.762032,7.1457728 C115.567235,7.70574369 114.408156,8.33821655 113.291345,9.03961627 L113.291345,20.2857176 L110.548712,20.2857176 L110.548712,5.73776091 L112.561032,5.73776091 Z" id="_Compound_Path_7"></path>
                                <path d="M138.761888,13.7922187 L131.433878,13.7922187 C131.584614,15.5915949 132.025515,16.8009257 132.756583,17.420211 C133.48765,18.0394963 134.703333,18.3498887 136.40363,18.3513882 C138.229009,18.3488996 140.052014,18.2203853 141.859504,17.9667715 L142.151177,19.7931384 C140.752351,20.3719377 138.717421,20.6605877 136.046387,20.6590882 C133.333146,20.6590882 131.40147,20.0330552 130.251358,18.7809893 C129.101245,17.5289233 128.525436,15.4041599 128.523928,12.406699 C128.523928,9.38824541 129.083157,7.27397835 130.201615,6.06389785 C131.320073,4.85381734 133.171106,4.24877709 135.754713,4.24877709 C138.100159,4.24877709 139.811007,4.6716305 140.887259,5.51733732 C141.963511,6.36304414 142.501637,7.64210074 142.501637,9.3545071 C142.546858,12.3129815 141.300275,13.7922187 138.761888,13.7922187 Z M131.399963,11.6734532 L138.049662,11.6734532 C139.189223,11.6734532 139.759757,10.9027204 139.761265,9.36125477 C139.740162,8.35510356 139.438691,7.63835204 138.856851,7.21100019 C138.275012,6.78364834 137.285433,6.56922267 135.888114,6.56772319 C134.230023,6.56772319 133.078403,6.92609895 132.433255,7.64285048 C131.788107,8.359602 131.443676,9.70313625 131.399963,11.6734532 Z" id="_Compound_Path_8"></path>
                                <path d="M158.419313,18.0319989 L158.710987,19.8628642 C156.971676,20.4271326 155.149856,20.6985218 153.320683,20.6658358 C150.607443,20.6658358 148.687071,20.0502992 147.559569,18.819226 C146.432067,17.5881528 145.866809,15.4633894 145.863794,12.4449358 C145.863794,9.42648215 146.429053,7.30696692 147.559569,6.08639005 C148.690086,4.86581318 150.621762,4.25552475 153.354598,4.25552475 C155.421183,4.25552475 157.110175,4.5014395 158.421574,4.993269 L158.066592,6.75890691 C156.646663,6.62995162 155.22598,6.56547397 153.804544,6.56547397 C151.911305,6.56547397 150.598398,6.9830792 149.865824,7.81828966 C149.133249,8.65350012 148.769976,10.1957155 148.776005,12.4449358 C148.776005,14.7136493 149.141539,16.2656113 149.872607,17.1008217 C150.603674,17.9360322 151.916581,18.3536374 153.811327,18.3536374 C155.353395,18.3658529 156.89407,18.2583135 158.419313,18.0319989 Z" id="_Compound_Path_9"></path>
                                <path d="M166.360063,6.79264522 L166.360063,15.9694639 C166.360063,16.719204 166.52135,17.2545184 166.843924,17.5754072 C167.166498,17.896296 167.715176,18.0567403 168.489957,18.0567403 L170.879869,18.0567403 L171.203197,20.1440167 C170.044481,20.4430262 168.850248,20.5837694 167.653374,20.5623717 C166.340467,20.5623717 165.339583,20.1987478 164.650722,19.4714999 C163.96186,18.744252 163.617429,17.6946159 163.617429,16.3225915 L163.617429,6.79264522 L160.77531,6.79264522 L160.77531,4.80208528 L163.615168,4.67387972 L163.615168,0.0179937622 L166.360063,0.0179937622 L166.360063,4.64239064 L171.36373,4.64239064 L171.36373,6.79264522 L166.360063,6.79264522 Z" id="_Compound_Path_10"></path>
                            </g>
                        </g>
                        <g id="_Group_4">
                            <g id="_Group_5" transform="translate(7.687514, 7.647349)">
                                <path d="M8.10128309,10.7062885 C6.63152278,10.7062885 5.44004664,9.52103746 5.44004664,8.05895623 C5.44004664,6.59687499 6.63152278,5.41162397 8.10128309,5.41162397 C8.53497447,5.41102345 8.96211707,5.51686489 9.34485152,5.71976715 C9.60746455,3.97177498 10.1671434,2.28097478 10.9999281,0.719750486 C7.69283588,-0.57458699 3.92393239,0.478018963 1.77731448,3.29550707 C-0.369303441,6.11299518 -0.369303441,10.0071665 1.77731448,12.8246546 C3.92393239,15.6421427 7.69283588,16.6947487 10.9999281,15.4004112 C10.1671434,13.8391869 9.60746455,12.1483867 9.34485152,10.4003945 C8.96191449,10.6025152 8.53478294,10.7075814 8.10128309,10.7062885 Z" id="_Compound_Path_11" fill="url(#linearGradient-1)"></path>
                                <path d="M10.9999281,15.398162 C7.92944454,15.398162 5.44004664,12.1008051 5.44004664,8.05670701 C5.44004611,9.51915253 6.63115711,10.705047 8.10128309,10.7062885 C8.53497447,10.706889 8.96211707,10.6010476 9.34485152,10.3981453 C9.60746455,12.1461375 10.1671434,13.8369377 10.9999281,15.398162 Z" id="_Path_2" fill="url(#linearGradient-2)"></path>
                            </g>
                            <g id="_Group_6">
                                <path d="M20.1073711,25.2497468 C16.8944193,26.6877175 13.1712423,26.4307643 10.1886827,24.5652133 C7.20612301,22.6996623 5.35997373,19.4730768 5.27046913,15.9694639 C5.27046913,15.8794951 5.27046913,15.7895263 5.27046913,15.6995575 C5.27423162,12.1502707 7.08568234,8.84465303 10.0824591,6.91841914 C13.0792359,4.99218526 16.8530663,4.70775995 20.1073711,6.16286354 C21.2446651,4.68489059 22.6363939,3.41923152 24.21793,2.42465945 C18.540741,-1.14018493 11.2182116,-0.743777429 5.96343054,3.41287267 C0.708649536,7.56952278 -1.32907129,14.577284 0.883550154,20.8826793 C3.0961716,27.1880747 9.07519664,31.4120048 15.788797,31.4126103 C18.7730507,31.4177034 21.6969583,30.5766347 24.21793,28.9879508 C22.6363939,27.9933788 21.2446651,26.7277197 20.1073711,25.2497468 Z" id="_Compound_Path_12" fill="url(#linearGradient-3)"></path>
                                <path d="M24.21793,28.9879508 C10.7376482,31.869202 5.41291424,22.5371871 5.27046913,15.9694639 C5.36218871,19.4718709 7.20923357,22.696401 10.1914297,24.5603684 C13.1736259,26.4243358 16.8954985,26.680556 20.1073711,25.2429991 C21.2440604,26.7233891 22.6358251,27.9913655 24.21793,28.9879508 Z" id="_Path_3" fill="url(#linearGradient-4)"></path>
                            </g>
                        </g>
                    </g>
                    <g id="_Group_7" transform="translate(169.081545, 28.969957)">
                        <path d="M8.06027574,5.55038456 C8.06027574,5.42987417 8.06027574,5.31408967 8.06027574,5.18885337 L8.06027574,5.55038456 Z" id="_Path_4" fill="#000000" opacity="0.18"></path>
                        <path d="M8.06027574,5.55038456 C8.06027574,5.42987417 8.06027574,5.31408967 8.06027574,5.18885337 L8.06027574,5.55038456 Z" id="_Path_5" fill="#000000" opacity="0.18"></path>
                        <path d="M8.06027574,5.55038456 C8.06027574,5.42987417 8.06027574,5.31408967 8.06027574,5.18885337 L8.06027574,5.55038456 Z" id="_Path_6" fill="#000000" opacity="0.18"></path>
                        <g id="_Group_8">
                            <path d="M8.23283376,10.286434 C7.88577946,10.2879 7.56036968,10.1171262 7.36323218,9.8300705 L7.33144517,9.78215233 C5.19810515,10.8205262 2.63366821,10.2363185 1.15438598,8.37494847 C-0.324896245,6.51357841 -0.324896245,3.87097378 1.15438598,2.00960373 C2.63366821,0.148233667 5.19810515,-0.435974037 7.33144517,0.602399864 C6.93823477,1.19199632 6.62230164,1.83007987 6.39145809,2.50087216 C5.14529401,1.90413117 3.65422342,2.25050653 2.7950482,3.33631737 C1.93587298,4.42212822 1.93587298,5.96014216 2.7950482,7.045953 C3.65422342,8.13176385 5.14529401,8.47813921 6.39145809,7.88139822 C6.09228297,7.01626145 5.9388099,6.10702807 5.93735805,5.19113519 L8.04665274,5.19113519 C8.04665274,5.30750789 8.04665274,5.41931696 8.04665274,5.54025329 C8.10449446,6.58215546 8.42735977,7.59171945 8.98436933,8.47238899 L9.08654184,8.62755259 C9.30526904,8.94973674 9.33047928,9.36654658 9.15219283,9.71298361 C8.97390638,10.0594206 8.62086883,10.2796279 8.23283376,10.286434 Z" id="_Path_7" fill="url(#linearGradient-5)"></path>
                            <path d="M14.1633803,0.088990889 C12.1109092,0.088990889 10.2605375,1.33153249 9.47509082,3.23722049 C8.68964412,5.14290849 9.12380261,7.33645027 10.5751189,8.79500072 C12.0264352,10.2535512 14.2090973,10.6898738 16.1053334,9.90051194 C18.0015695,9.11115012 19.2379483,7.2515552 19.2379483,5.18885337 C19.2379483,2.3722771 16.9659868,0.088990889 14.1633803,0.088990889 Z M14.1633803,8.16662542 C12.9640392,8.16662542 11.882793,7.44055861 11.423825,6.3269888 C10.9648571,5.21341899 11.2185533,3.93164469 12.0666155,3.07935525 C12.9146777,2.22706582 14.1900946,1.97210506 15.2981413,2.43336078 C16.4061879,2.89461649 17.1286536,3.98125228 17.1286536,5.18657155 C17.1274014,6.83188835 15.8005366,8.16536706 14.1633803,8.16662542 Z" id="_Compound_Path_13" fill="url(#linearGradient-6)"></path>
                        </g>
                        <ellipse id="_Ellipse_" fill="#76CA1C" cx="14.1633803" cy="5.18657155" rx="1" ry="1"></ellipse>
                        <g id="_Group_9" transform="translate(19.980402, 1.825454)">
                            <path d="M0.908200084,1.09299066 C0.412721777,1.26016159 0.114106851,1.76713237 0.206615519,2.28409948 C0.332277375,2.99732484 0.332277375,3.72719182 0.206615519,4.44041718 C0.114106851,4.95738429 0.412721777,5.46435507 0.908200084,5.631526 C1.19903138,5.7291378 1.51772125,5.69486227 1.78141288,5.53761076 C2.04510451,5.38035926 2.22774625,5.11566758 2.28185271,4.81235346 C2.45100023,3.8530962 2.45100023,2.87142046 2.28185271,1.9121632 C2.22774625,1.60884908 2.04510451,1.3441574 1.78141288,1.1869059 C1.51772125,1.02965439 1.19903138,0.99537886 0.908200084,1.09299066 Z" id="_Path_9" fill="#76CA1C"></path>
                            <path d="M3.91207186,0.0775818006 C3.4013238,0.248330963 3.10142609,0.779215247 3.2172988,1.30748152 C3.52003216,2.65966977 3.52003216,4.06256507 3.2172988,5.41475332 C3.10142609,5.9430196 3.4013238,6.47390388 3.91207186,6.64465304 C4.19560399,6.73887644 4.50557908,6.70802028 4.76520914,6.55972835 C5.02483921,6.41143643 5.20983616,6.15958127 5.27437199,5.86655322 C5.64295542,4.21371999 5.64295542,2.49938758 5.27437199,0.846554354 C5.20770583,0.55520301 5.02183277,0.305634538 4.76247051,0.159233271 C4.50310824,0.0128320038 4.19432579,-0.0168159048 3.91207186,0.0775818006 Z" id="_Path_10" fill="#76CA1C"></path>
                            <ellipse id="_Ellipse_2" fill="#61A617" cx="4.24583539" cy="1.08158157" rx="1.0535121" ry="1.0587634"></ellipse>
                            <ellipse id="_Ellipse_3" fill="#61A617" cx="1.23969311" cy="4.62752623" rx="1.0535121" ry="1.0587634"></ellipse>
                        </g>
                    </g>
                    <path d="M159.302289,31.0692293 L159.302289,32.4078055 C159.307529,32.6932118 159.282166,32.9783477 159.226649,33.2581401 C159.570965,32.8465213 160.07132,32.6042924 160.601911,32.5923561 C160.993732,32.5619797 161.373504,32.7383165 161.608144,33.059573 C161.823602,33.3710508 161.93133,33.8686367 161.93133,34.5523307 C161.93133,35.2360246 161.809849,35.7320531 161.566886,36.0404162 C161.323923,36.3643532 160.894536,36.5263217 160.278724,36.5263217 C159.697058,36.5381081 159.117778,36.4472172 158.566524,36.257672 L158.566524,31.0692293 L159.302289,31.0692293 Z M159.302289,33.755726 L159.302289,35.783447 C159.619642,35.8620098 159.945277,35.900455 160.271848,35.8979151 C160.542548,35.9224634 160.807403,35.8076527 160.977816,35.5918881 C161.14169,35.2687715 161.214673,34.9057512 161.188689,34.5429863 C161.212309,34.1905494 161.153386,33.8374384 161.016781,33.5127733 C160.906761,33.3258865 160.686719,33.2324432 160.356656,33.2324432 C160.188106,33.2318678 160.022008,33.2735872 159.873022,33.3539195 C159.67104,33.4696521 159.479984,33.6041594 159.302289,33.755726 Z" id="Shape" fill="url(#linearGradient-7)"></path>
                    <path d="M166.137339,32.3287927 L164.706834,36.0376916 C164.363266,36.9091573 163.797843,37.3522755 163.010565,37.3670461 L162.934302,36.901772 C163.185304,36.8383465 163.418271,36.7217507 163.616045,36.5605711 C163.789535,36.4062314 163.926632,36.2181401 164.018158,36.008889 L164.071311,35.8781691 L163.918785,35.8781691 C163.796409,35.8929424 163.6835,35.8129757 163.662265,35.6964907 L162.351931,32.3354395 L163.13998,32.3354395 L164.064378,34.9121715 C164.122875,35.0553534 164.166231,35.2038038 164.193793,35.3552897 L164.300099,35.3552897 C164.350941,35.2253083 164.401783,35.0776023 164.452625,34.9121715 L165.360845,32.3354395 L166.137339,32.3287927 Z" id="Shape" fill="url(#linearGradient-8)"></path>
                </g>
            </g>
        </g>
    </g>
</svg>