<?xml version="1.0" encoding="UTF-8"?>
<svg width="74px" height="73px" viewBox="0 0 74 73" version="1.1" xmlns="http://www.w3.org/2000/svg" xmlns:xlink="http://www.w3.org/1999/xlink">
    <!-- Generator: Sketch 49 (51002) - http://www.bohemiancoding.com/sketch -->
    <title>Globe - simple-line-icons</title>
    <desc>Created with Sketch.</desc>
    <defs></defs>
    <g id="Page-1" stroke="none" stroke-width="1" fill="none" fill-rule="evenodd">
        <g id="Landing" transform="translate(-1123.000000, -1636.000000)" fill="#76C91C">
            <path d="M1196.07031,1672.5 C1196.07031,1677.28127 1195.19142,1681.79295 1193.43359,1686.03516 C1191.67577,1690.27736 1189.26173,1694.00389 1186.19141,1697.21484 C1183.12108,1700.4258 1179.52346,1703.02733 1175.39844,1705.01953 C1171.27342,1707.01173 1166.86721,1708.14844 1162.17969,1708.42969 C1161.99219,1708.42969 1161.79297,1708.44141 1161.58203,1708.46484 C1161.37109,1708.48828 1161.17188,1708.5 1160.98438,1708.5 L1160,1708.5 C1155.03123,1708.5 1150.35549,1707.55079 1145.97266,1705.65234 C1141.58982,1703.7539 1137.76955,1701.1758 1134.51172,1697.91797 C1131.25389,1694.66014 1128.67579,1690.85158 1126.77734,1686.49219 C1124.8789,1682.13279 1123.92969,1677.46877 1123.92969,1672.5 C1123.92969,1667.53123 1124.8789,1662.86721 1126.77734,1658.50781 C1128.67579,1654.14842 1131.25389,1650.33986 1134.51172,1647.08203 C1137.76955,1643.8242 1141.58982,1641.2461 1145.97266,1639.34766 C1150.35549,1637.44921 1155.03123,1636.5 1160,1636.5 L1160.98438,1636.5 C1161.17188,1636.5 1161.37109,1636.51172 1161.58203,1636.53516 C1161.79297,1636.55859 1161.99219,1636.57031 1162.17969,1636.57031 C1166.86721,1636.85156 1171.27342,1637.98827 1175.39844,1639.98047 C1179.52346,1641.97267 1183.12108,1644.5742 1186.19141,1647.78516 C1189.26173,1650.99611 1191.67577,1654.72264 1193.43359,1658.96484 C1195.19142,1663.20705 1196.07031,1667.71873 1196.07031,1672.5 Z M1189.39062,1684.10156 C1190.09375,1682.3203 1190.63281,1680.45704 1191.00781,1678.51172 C1191.38281,1676.5664 1191.57031,1674.56251 1191.57031,1672.5 C1191.57031,1670.34374 1191.35938,1668.2461 1190.9375,1666.20703 C1190.51562,1664.16796 1189.92969,1662.23438 1189.17969,1660.40625 L1190.02344,1662.72656 C1189.88281,1662.77344 1189.00391,1663.00781 1187.38672,1663.42969 C1185.76952,1663.85156 1183.22658,1664.27344 1179.75781,1664.69531 C1179.89844,1665.96094 1180.01562,1667.23827 1180.10938,1668.52734 C1180.20313,1669.81641 1180.25,1671.14062 1180.25,1672.5 C1180.25,1674.18751 1180.17969,1675.85155 1180.03906,1677.49219 C1179.89844,1679.13282 1179.73438,1680.72655 1179.54688,1682.27344 C1182.26564,1682.60156 1184.42187,1682.9414 1186.01562,1683.29297 C1187.60938,1683.64453 1188.73437,1683.91406 1189.39062,1684.10156 Z M1144.03906,1672.5 C1144.03906,1674.14063 1144.10937,1675.73437 1144.25,1677.28125 C1144.39063,1678.82813 1144.57812,1680.35155 1144.8125,1681.85156 C1146.64063,1681.71094 1148.62108,1681.59375 1150.75391,1681.5 C1152.88673,1681.40625 1155.1953,1681.33594 1157.67969,1681.28906 L1157.67969,1665.67969 C1155.10155,1665.67969 1152.72267,1665.63281 1150.54297,1665.53906 C1148.36327,1665.44531 1146.35938,1665.32813 1144.53125,1665.1875 C1144.39062,1666.35938 1144.27344,1667.55468 1144.17969,1668.77344 C1144.08594,1669.99219 1144.03906,1671.23437 1144.03906,1672.5 Z M1162.17969,1641.28125 L1162.17969,1661.25 C1164.6172,1661.20312 1166.85546,1661.13281 1168.89453,1661.03906 C1170.9336,1660.94531 1172.8203,1660.82813 1174.55469,1660.6875 C1173.99218,1658.15624 1173.30079,1655.80079 1172.48047,1653.62109 C1171.66015,1651.4414 1170.71094,1649.50782 1169.63281,1647.82031 C1168.55468,1646.1328 1167.38282,1644.72657 1166.11719,1643.60156 C1164.85156,1642.47656 1163.53907,1641.70313 1162.17969,1641.28125 Z M1157.67969,1641.35156 C1156.32031,1641.77344 1155.00782,1642.55859 1153.74219,1643.70703 C1152.47656,1644.85547 1151.31641,1646.26171 1150.26172,1647.92578 C1149.20703,1649.58985 1148.25782,1651.51171 1147.41406,1653.69141 C1146.57031,1655.8711 1145.86719,1658.20311 1145.30469,1660.6875 C1147.03907,1660.82813 1148.93749,1660.94531 1151,1661.03906 C1153.06251,1661.13281 1155.28905,1661.20312 1157.67969,1661.25 L1157.67969,1641.35156 Z M1157.67969,1685.78906 C1155.3828,1685.83594 1153.25001,1685.89453 1151.28125,1685.96484 C1149.31249,1686.03516 1147.48438,1686.14062 1145.79688,1686.28125 C1146.35938,1688.53126 1147.0625,1690.6289 1147.90625,1692.57422 C1148.75,1694.51954 1149.68749,1696.24218 1150.71875,1697.74219 C1151.75001,1699.2422 1152.85156,1700.49609 1154.02344,1701.50391 C1155.19532,1702.51172 1156.41406,1703.22656 1157.67969,1703.64844 L1157.67969,1685.78906 Z M1162.17969,1703.71875 C1163.44532,1703.34375 1164.67578,1702.65235 1165.87109,1701.64453 C1167.06641,1700.63671 1168.17968,1699.38282 1169.21094,1697.88281 C1170.24219,1696.3828 1171.16796,1694.64845 1171.98828,1692.67969 C1172.8086,1690.71093 1173.5,1688.57814 1174.0625,1686.28125 C1172.42187,1686.14062 1170.60548,1686.03516 1168.61328,1685.96484 C1166.62108,1685.89453 1164.47657,1685.83594 1162.17969,1685.78906 L1162.17969,1703.71875 Z M1162.17969,1681.28906 C1164.66407,1681.33594 1166.97265,1681.40625 1169.10547,1681.5 C1171.23829,1681.59375 1173.1953,1681.71094 1174.97656,1681.85156 C1175.21094,1680.35155 1175.39844,1678.82813 1175.53906,1677.28125 C1175.67969,1675.73437 1175.75,1674.14063 1175.75,1672.5 C1175.75,1671.23437 1175.70313,1669.99219 1175.60938,1668.77344 C1175.51562,1667.55468 1175.39844,1666.33594 1175.25781,1665.11719 C1173.47655,1665.30469 1171.4961,1665.44531 1169.31641,1665.53906 C1167.13671,1665.63281 1164.75783,1665.67969 1162.17969,1665.67969 L1162.17969,1681.28906 Z M1188.33594,1658.57812 C1186.6953,1655.24998 1184.51564,1652.29689 1181.79688,1649.71875 C1179.07811,1647.14061 1176.00783,1645.10157 1172.58594,1643.60156 C1174.03907,1645.66407 1175.32812,1648.11327 1176.45312,1650.94922 C1177.57813,1653.78517 1178.46875,1656.89061 1179.125,1660.26562 C1181.93751,1659.9375 1184.09374,1659.59766 1185.59375,1659.24609 C1187.09376,1658.89453 1188.00781,1658.67188 1188.33594,1658.57812 Z M1149.24219,1642.89844 C1147.27343,1643.60157 1145.42188,1644.48046 1143.6875,1645.53516 C1141.95312,1646.58985 1140.33595,1647.79687 1138.83594,1649.15625 C1137.33593,1650.51563 1135.96485,1652.0039 1134.72266,1653.62109 C1133.48046,1655.23829 1132.41407,1656.96093 1131.52344,1658.78906 C1132.13282,1658.97656 1133.21093,1659.21094 1134.75781,1659.49219 C1136.3047,1659.77344 1138.36717,1660.05469 1140.94531,1660.33594 C1141.74219,1656.72654 1142.86718,1653.44533 1144.32031,1650.49219 C1145.77344,1647.53905 1147.41405,1645.00782 1149.24219,1642.89844 Z M1129.90625,1663.00781 C1129.4375,1664.50782 1129.07422,1666.05468 1128.81641,1667.64844 C1128.55859,1669.2422 1128.42969,1670.85937 1128.42969,1672.5 C1128.42969,1674.51564 1128.60547,1676.47265 1128.95703,1678.37109 C1129.3086,1680.26954 1129.83593,1682.08593 1130.53906,1683.82031 C1131.24219,1683.67969 1132.41405,1683.45703 1134.05469,1683.15234 C1135.69532,1682.84765 1137.82811,1682.55469 1140.45312,1682.27344 C1140.17187,1680.72655 1139.96094,1679.13282 1139.82031,1677.49219 C1139.67969,1675.85155 1139.60938,1674.18751 1139.60938,1672.5 C1139.60938,1671.18749 1139.64453,1669.87501 1139.71484,1668.5625 C1139.78516,1667.24999 1139.91406,1665.98438 1140.10156,1664.76562 C1137.05467,1664.4375 1134.69923,1664.09766 1133.03516,1663.74609 C1131.37109,1663.39453 1130.32813,1663.14844 1129.90625,1663.00781 Z M1132.50781,1687.96875 C1133.44532,1689.60938 1134.51171,1691.14452 1135.70703,1692.57422 C1136.90235,1694.00391 1138.20312,1695.3164 1139.60938,1696.51172 C1141.01563,1697.70704 1142.52734,1698.78515 1144.14453,1699.74609 C1145.76173,1700.70704 1147.46093,1701.49218 1149.24219,1702.10156 C1147.55468,1700.22655 1146.04298,1697.97658 1144.70703,1695.35156 C1143.37109,1692.72655 1142.28125,1689.82033 1141.4375,1686.63281 C1139.23436,1686.86719 1137.40626,1687.11328 1135.95312,1687.37109 C1134.49999,1687.62891 1133.35157,1687.82812 1132.50781,1687.96875 Z M1172.58594,1701.39844 C1175.6797,1700.03906 1178.49217,1698.23439 1181.02344,1695.98438 C1183.5547,1693.73436 1185.66405,1691.13283 1187.35156,1688.17969 C1186.64843,1687.99219 1185.59376,1687.76953 1184.1875,1687.51172 C1182.78124,1687.2539 1180.95314,1686.98438 1178.70312,1686.70312 C1178.04687,1689.65626 1177.19141,1692.37499 1176.13672,1694.85938 C1175.08203,1697.34376 1173.89844,1699.52343 1172.58594,1701.39844 Z" id="Globe---simple-line-icons"></path>
        </g>
    </g>
</svg>