<?xml version="1.0" encoding="UTF-8"?>
<svg width="72px" height="41px" viewBox="0 0 72 41" version="1.1" xmlns="http://www.w3.org/2000/svg" xmlns:xlink="http://www.w3.org/1999/xlink">
    <!-- Generator: Sketch 49 (51002) - http://www.bohemiancoding.com/sketch -->
    <title>Graph - simple-line-icons</title>
    <desc>Created with Sketch.</desc>
    <defs></defs>
    <g id="Page-1" stroke="none" stroke-width="1" fill="none" fill-rule="evenodd">
        <g id="Landing" transform="translate(-140.000000, -3465.000000)" fill="#76C91C">
            <path d="M206.375,3465.25 C207.921883,3465.25 209.246088,3465.80078 210.347656,3466.90234 C211.449224,3468.00391 212,3469.32812 212,3470.875 C212,3472.42188 211.449224,3473.74609 210.347656,3474.84766 C209.246088,3475.94922 207.921883,3476.5 206.375,3476.5 C205.953123,3476.5 205.554689,3476.45313 205.179688,3476.35938 C204.804686,3476.26562 204.453127,3476.14844 204.125,3476.00781 L189.5,3488.59375 L189.5,3488.875 C189.5,3490.42188 188.949224,3491.74609 187.847656,3492.84766 C186.746088,3493.94922 185.421883,3494.5 183.875,3494.5 C182.328117,3494.5 181.003912,3493.96094 179.902344,3492.88281 C178.800776,3491.80468 178.25,3490.4922 178.25,3488.94531 L167.773438,3483.67188 C167.25781,3484.23438 166.636722,3484.67969 165.910156,3485.00781 C165.18359,3485.33594 164.421879,3485.5 163.625,3485.5 C163.343749,3485.5 163.062501,3485.47656 162.78125,3485.42969 C162.499999,3485.38281 162.218751,3485.3125 161.9375,3485.21875 L150.828125,3498.01562 C150.968751,3498.34375 151.074218,3498.68359 151.144531,3499.03516 C151.214844,3499.38672 151.25,3499.75 151.25,3500.125 C151.25,3501.67188 150.699224,3502.99609 149.597656,3504.09766 C148.496088,3505.19922 147.171883,3505.75 145.625,3505.75 C144.078117,3505.75 142.753912,3505.19922 141.652344,3504.09766 C140.550776,3502.99609 140,3501.67188 140,3500.125 C140,3498.57812 140.550776,3497.25391 141.652344,3496.15234 C142.753912,3495.05078 144.078117,3494.5 145.625,3494.5 C145.953127,3494.5 146.281248,3494.53516 146.609375,3494.60547 C146.937502,3494.67578 147.265623,3494.75781 147.59375,3494.85156 L158.5625,3482.26562 C158.374999,3481.89062 158.234375,3481.50391 158.140625,3481.10547 C158.046875,3480.70703 158,3480.29688 158,3479.875 C158,3478.32812 158.550776,3477.00391 159.652344,3475.90234 C160.753912,3474.80078 162.078117,3474.25 163.625,3474.25 C165.125008,3474.25 166.402338,3474.7539 167.457031,3475.76172 C168.511724,3476.76954 169.085937,3477.99999 169.179688,3479.45312 L179.9375,3484.86719 C180.453128,3484.35156 181.050778,3483.95313 181.730469,3483.67188 C182.41016,3483.39062 183.124996,3483.25 183.875,3483.25 C184.531253,3483.25 185.152341,3483.36719 185.738281,3483.60156 C186.324222,3483.83594 186.874997,3484.14062 187.390625,3484.51562 L201.101562,3472.70312 C201.007812,3472.42187 200.925782,3472.12891 200.855469,3471.82422 C200.785156,3471.51953 200.75,3471.20313 200.75,3470.875 C200.75,3469.32812 201.300776,3468.00391 202.402344,3466.90234 C203.503912,3465.80078 204.828117,3465.25 206.375,3465.25 Z" id="Graph---simple-line-icons"></path>
        </g>
    </g>
</svg>