<?xml version="1.0" encoding="UTF-8"?>
<svg width="246px" height="50px" viewBox="0 0 246 50" version="1.1" xmlns="http://www.w3.org/2000/svg" xmlns:xlink="http://www.w3.org/1999/xlink">
    <!-- Generator: Sketch 49 (51002) - http://www.bohemiancoding.com/sketch -->
    <title>Logo-Alt</title>
    <desc>Created with Sketch.</desc>
    <defs>
        <linearGradient x1="50.0102768%" y1="99.9750581%" x2="50.0102768%" y2="-0.0035704599%" id="linearGradient-1">
            <stop stop-color="#76CA1C" offset="0%"></stop>
            <stop stop-color="#90DB27" offset="100%"></stop>
        </linearGradient>
        <linearGradient x1="0%" y1="50.0306373%" x2="100%" y2="50.0306373%" id="linearGradient-2">
            <stop stop-color="#76CA1C" offset="0%"></stop>
            <stop stop-color="#61A617" offset="70%"></stop>
        </linearGradient>
        <linearGradient x1="5355%" y1="13966%" x2="5355%" y2="0%" id="linearGradient-3">
            <stop stop-color="#76CA1C" offset="0%"></stop>
            <stop stop-color="#90DB27" offset="100%"></stop>
        </linearGradient>
        <linearGradient x1="2331%" y1="10115%" x2="10711%" y2="10115%" id="linearGradient-4">
            <stop stop-color="#76CA1C" offset="0%"></stop>
            <stop stop-color="#61A617" offset="70%"></stop>
        </linearGradient>
        <linearGradient x1="70075%" y1="14857%" x2="71543%" y2="14857%" id="linearGradient-5">
            <stop stop-color="#76CA1C" offset="0%"></stop>
            <stop stop-color="#90DB27" offset="100%"></stop>
        </linearGradient>
        <linearGradient x1="71746%" y1="15521%" x2="73384%" y2="15521%" id="linearGradient-6">
            <stop stop-color="#76CA1C" offset="0%"></stop>
            <stop stop-color="#90DB27" offset="100%"></stop>
        </linearGradient>
    </defs>
    <g id="Page-1" stroke="none" stroke-width="1" fill="none" fill-rule="evenodd">
        <g id="Landing" transform="translate(-120.000000, -59.000000)" fill-rule="nonzero">
            <g id="Logo-Alt" transform="translate(120.000000, 59.000000)">
                <g id="_Group_">
                    <g id="_Group_2" transform="translate(30.341855, 4.285714)" fill="#FFFFFF">
                        <path d="M17.2353078,20.9885714 L17.7627456,24.9057143 C15.7115984,25.8028571 13.1339586,26.2514286 10.0298262,26.2514286 C6.35855629,26.2514286 3.77429987,25.4561905 2.27705695,23.8657143 C0.779814024,22.2752381 0.0311925609,19.5485714 0.0311925609,15.6857143 C0.0311925609,11.7980952 0.787375857,9.05809524 2.29974245,7.46571429 C3.81210904,5.87333333 6.41621526,5.07809524 10.1120611,5.08 C13.1367943,5.08 15.59439,5.50190476 17.4848483,6.34571429 L16.8383115,10.0971429 C13.9232249,10.0438095 12.0204787,10.0161905 11.1300729,10.0142857 C9.29443793,10.0142857 8.03255706,10.4085714 7.34443026,11.1971429 C6.65630346,11.9857143 6.31224006,13.4809524 6.31224006,15.6828571 C6.31224006,17.8847619 6.65630346,19.38 7.34443026,20.1685714 C8.03255706,20.9571429 9.29443793,21.3514286 11.1300729,21.3514286 C13.1709968,21.3714806 15.2108772,21.2502429 17.2353078,20.9885714 Z" id="_Compound_Path_"></path>
                        <rect id="_Path_" x="21.568238" y="5.65142857" width="5.95210777" height="20.1085714"></rect>
                        <path d="M40.3518311,9.68857143 L40.3518311,19.1942857 C40.3518311,19.9561905 40.5134653,20.4866667 40.8367337,20.7857143 C41.160002,21.0847619 41.7271395,21.2342857 42.5381461,21.2342857 L45.0902647,21.2342857 L45.7368014,25.4285714 C44.1979684,25.9733333 42.3226338,26.2447619 40.1107977,26.2428571 C38.3016292,26.2428571 36.8979639,25.7333333 35.899802,24.7142857 C34.90164,23.6952381 34.4016138,22.2761905 34.3997233,20.4571429 L34.3997233,9.68857143 L30.8777996,9.68857143 L30.8777996,5.85428571 L34.3997233,5.65142857 L34.3997233,0.0228571429 L40.3546668,0.0228571429 L40.3546668,5.65142857 L45.9012713,5.65142857 L45.9012713,9.68857143 L40.3518311,9.68857143 Z" id="_Compound_Path_2"></path>
                        <path d="M69.1765931,5.65142857 L62.0873747,26.0457143 C61.7235398,27.098229 61.253174,28.1102259 60.6837095,29.0657143 C60.0885005,30.0423312 59.3739952,30.9398207 58.556944,31.7371429 C57.6499846,32.6195739 56.5463216,33.2701263 55.3384388,33.6342857 C53.9545569,34.0500563 52.4981231,34.1611384 51.0678936,33.96 L50.5829911,30.4114286 C52.2031138,29.9771429 53.4716113,29.4133333 54.3884835,28.72 C55.3327033,27.9921867 56.0725213,27.0291531 56.5350989,25.9257143 L56.6173338,25.7628571 L55.4830589,25.7628571 C54.4848969,25.7628571 53.837415,25.2733333 53.540613,24.2942857 L47.0185321,5.65428571 L53.4158428,5.65428571 L57.1391003,18.6657143 C57.3829694,19.6180952 57.5852484,20.6238095 57.7459374,21.6828571 L58.2733752,21.6828571 C58.3546649,21.3571429 58.4898327,20.847619 58.6788785,20.1542857 L59.0843818,18.6657143 L62.7707754,5.65428571 L69.1765931,5.65142857 Z" id="_Compound_Path_3"></path>
                        <path d="M87.4327483,22.9057143 L87.798552,25.2314286 C85.6171741,25.9481561 83.332337,26.2928954 81.0382733,26.2514286 C77.6354485,26.2514286 75.2270047,25.4695238 73.8129419,23.9057143 C72.3988792,22.3419048 71.6899573,19.6428571 71.6861764,15.8085714 C71.6861764,11.9742857 72.394153,9.28190476 73.8101063,7.73142857 C75.2260595,6.18095238 77.6486817,5.40571429 81.077973,5.40571429 C83.6679007,5.40571429 85.7861592,5.71809524 87.4327483,6.34285714 L86.9875454,8.58571429 C85.2067338,8.42190476 83.4249769,8.34 81.6422747,8.34 C79.2678592,8.34 77.6212701,8.87047619 76.7025074,9.93142857 C75.7837447,10.992381 75.3253085,12.9504762 75.327199,15.8057143 C75.327199,18.687619 75.7856351,20.6590476 76.7025074,21.72 C77.6193796,22.7809524 79.2659687,23.3114286 81.6422747,23.3114286 C83.5799786,23.3284987 85.5160398,23.192847 87.4327483,22.9057143 Z" id="_Compound_Path_4"></path>
                        <path d="M100.468403,5.40571429 C103.871228,5.40571429 106.266439,6.19428571 107.654035,7.77142857 C109.041631,9.34857143 109.73732,12.0409524 109.741101,15.8485714 C109.741101,19.6580952 109.046357,22.3504762 107.656871,23.9257143 C106.267384,25.5009524 103.871228,26.287619 100.468403,26.2857143 C97.0939352,26.2857143 94.7053412,25.4971429 93.3026212,23.92 C91.8999011,22.3428571 91.1985411,19.6504762 91.1985411,15.8428571 C91.1985411,12.0333333 91.8999011,9.34095238 93.3026212,7.76571429 C94.7053412,6.19047619 97.0939352,5.40380952 100.468403,5.40571429 Z M104.943118,9.93428571 C104.118878,8.87333333 102.627306,8.34285714 100.468403,8.34285714 C98.3094998,8.34285714 96.8254901,8.87333333 96.016374,9.93428571 C95.2072578,10.9952381 94.8026998,12.9666667 94.8026998,15.8485714 C94.8026998,18.7304762 95.2072578,20.7019048 96.016374,21.7628571 C96.8254901,22.8238095 98.3094998,23.3542857 100.468403,23.3542857 C102.627306,23.3542857 104.118878,22.8238095 104.943118,21.7628571 C105.765467,20.7019048 106.177587,18.7304762 106.179477,15.8485714 C106.181368,12.9666667 105.769248,10.9952381 104.943118,9.93428571 Z" id="_Compound_Path_5"></path>
                        <path d="M117.646997,7.28857143 L118.282191,9.03714286 C121.473285,6.61809524 124.414838,5.40761905 127.10685,5.40571429 C130.670364,5.40571429 132.452121,7.22761905 132.452121,10.8714286 L132.452121,25.76 L129.023775,25.76 L129.023775,11.8514286 C129.023775,10.5466667 128.808263,9.63619048 128.377238,9.12 C127.946214,8.60380952 127.216497,8.3447619 126.188087,8.34285714 C125.062771,8.35330624 123.952384,8.60354873 122.929883,9.07714286 C121.431422,9.7884635 119.977756,10.5918821 118.577103,11.4828571 L118.577103,25.7685714 L115.128907,25.7685714 L115.128907,7.28857143 L117.646997,7.28857143 Z" id="_Compound_Path_6"></path>
                        <path d="M141.169024,7.28857143 L141.804218,9.03714286 C144.987749,6.61809524 147.929302,5.40761905 150.628877,5.40571429 C154.184829,5.40571429 155.962805,7.22761905 155.962805,10.8714286 L155.962805,25.76 L152.531623,25.76 L152.531623,11.8514286 C152.531623,10.5466667 152.316111,9.63619048 151.885086,9.12 C151.454062,8.60380952 150.724345,8.3447619 149.695936,8.34285714 C148.570619,8.35330624 147.460232,8.60354873 146.437731,9.07714286 C144.93927,9.7884635 143.485605,10.5918821 142.084951,11.4828571 L142.084951,25.7685714 L138.645262,25.7685714 L138.645262,7.28857143 L141.169024,7.28857143 Z" id="_Compound_Path_7"></path>
                        <path d="M174.028969,17.52 L164.838506,17.52 C165.027552,19.8057143 165.580511,21.3419048 166.497383,22.1285714 C167.414256,22.9152381 168.93891,23.3095238 171.071347,23.3114286 C173.360656,23.3082674 175.646988,23.145018 177.913861,22.8228571 L178.279664,25.1428571 C176.525319,25.8780952 173.9732,26.2447619 170.623308,26.2428571 C167.220484,26.2428571 164.797861,25.447619 163.355442,23.8571429 C161.913022,22.2666667 161.190867,19.567619 161.188977,15.76 C161.188977,11.9257143 161.890337,9.24 163.293057,7.70285714 C164.695777,6.16571429 167.017259,5.39714286 170.257505,5.39714286 C173.199058,5.39714286 175.344728,5.93428571 176.694515,7.00857143 C178.044302,8.08285714 178.719196,9.70761905 178.719196,11.8828571 C178.77591,15.6409524 177.212501,17.52 174.028969,17.52 Z M164.795971,14.8285714 L173.135727,14.8285714 C174.564914,14.8285714 175.280452,13.8495238 175.282343,11.8914286 C175.255876,10.6133333 174.877785,9.70285714 174.148068,9.16 C173.418351,8.61714286 172.177265,8.3447619 170.42481,8.34285714 C168.345306,8.34285714 166.900996,8.79809524 166.09188,9.70857143 C165.282764,10.6190476 164.850794,12.3257143 164.795971,14.8285714 Z" id="_Compound_Path_8"></path>
                        <path d="M198.682435,22.9057143 L199.048238,25.2314286 C196.866873,25.9482083 194.582027,26.2929489 192.28796,26.2514286 C188.885135,26.2514286 186.476691,25.4695238 185.062628,23.9057143 C183.648566,22.3419048 182.939644,19.6428571 182.935863,15.8085714 C182.935863,11.9742857 183.644785,9.28190476 185.062628,7.73142857 C186.480472,6.18095238 188.903094,5.40571429 192.330495,5.40571429 C194.922313,5.40571429 197.040572,5.71809524 198.68527,6.34285714 L198.240068,8.58571429 C196.459256,8.42190476 194.677499,8.34 192.894797,8.34 C190.520381,8.34 188.873792,8.87047619 187.95503,9.93142857 C187.036267,10.992381 186.580666,12.9514286 186.588228,15.8085714 C186.588228,18.6904762 187.046664,20.6619048 187.963537,21.7228571 C188.880409,22.7838095 190.526998,23.3142857 192.903304,23.3142857 C194.837297,23.3298029 196.769542,23.1931975 198.682435,22.9057143 Z" id="_Compound_Path_9"></path>
                        <path d="M208.641369,8.62857143 L208.641369,20.2857143 C208.641369,21.2380952 208.843648,21.9180952 209.248206,22.3257143 C209.652764,22.7333333 210.340891,22.9371429 211.312586,22.9371429 L214.309908,22.9371429 L214.715411,25.5885714 C213.262202,25.9683976 211.764448,26.1471811 210.263382,26.12 C208.616793,26.12 207.361529,25.6580952 206.497589,24.7342857 C205.63365,23.8104762 205.20168,22.4771429 205.20168,20.7342857 L205.20168,8.62857143 L201.637221,8.62857143 L201.637221,6.1 L205.198844,5.93714286 L205.198844,0.0228571429 L208.641369,0.0228571429 L208.641369,5.89714286 L214.916745,5.89714286 L214.916745,8.62857143 L208.641369,8.62857143 Z" id="_Compound_Path_10"></path>
                    </g>
                    <g id="_Group_3">
                        <g id="_Group_4" transform="translate(9.641337, 9.714286)">
                            <path d="M10.1602678,13.6 C8.31696,13.6 6.82266378,12.0943976 6.82266378,10.2371429 C6.82266378,8.37988814 8.31696,6.87428571 10.1602678,6.87428571 C10.7041842,6.87352288 11.2398874,7.00797131 11.7198959,7.26571429 C12.0492534,5.0452722 12.7511777,2.89748002 13.795619,0.914285714 C9.64801154,-0.729887213 4.92122094,0.607218637 2.22902852,4.1862216 C-0.463163899,7.76522457 -0.463163899,12.7119183 2.22902852,16.2909213 C4.92122094,19.8699242 9.64801154,21.2070301 13.795619,19.5628571 C12.7511777,17.5796628 12.0492534,15.4318707 11.7198959,13.2114286 C11.2396333,13.4681788 10.703944,13.6016424 10.1602678,13.6 Z" id="_Compound_Path_11" fill="url(#linearGradient-1)"></path>
                            <path d="M13.795619,19.56 C9.94475557,19.56 6.82266378,15.3714286 6.82266378,10.2342857 C6.82266312,12.0920032 8.3165014,13.598423 10.1602678,13.6 C10.7041842,13.6007628 11.2398874,13.4663144 11.7198959,13.2085714 C12.0492534,15.4290135 12.7511777,17.5768057 13.795619,19.56 Z" id="_Path_2" fill="url(#linearGradient-2)"></path>
                        </g>
                        <g id="_Group_5">
                            <path d="M25.2177677,32.0742857 C21.1882269,33.9009134 16.5187845,33.5745104 12.7781912,31.2047356 C9.03759798,28.8349607 6.72223992,24.7362889 6.60998723,20.2857143 C6.60998723,20.1714286 6.60998723,20.0571429 6.60998723,19.9428571 C6.61470598,15.4342639 8.88654666,11.235199 12.6449704,8.78833972 C16.4033942,6.34148049 21.1363638,5.98018029 25.2177677,7.82857143 C26.6441112,5.95112975 28.3895553,4.34338648 30.3730473,3.08 C23.2529702,-1.4483558 14.0693804,-0.944806694 7.47906853,4.33530896 C0.888756632,9.61542461 -1.66686192,18.5172539 1.10810918,26.5268809 C3.88308028,34.5365078 11.3817067,39.9020879 19.8016048,39.9028571 C23.5443226,39.9093269 27.2113571,38.8409328 30.3730473,36.8228571 C28.3895553,35.5594707 26.6441112,33.9517274 25.2177677,32.0742857 Z" id="_Compound_Path_12" fill="url(#linearGradient-3)"></path>
                            <path d="M30.3730473,36.8228571 C13.4666793,40.4828571 6.78863554,28.6285714 6.60998723,20.2857143 C6.72501785,24.734757 9.04149909,28.8308179 12.7816365,31.1985812 C16.5217739,33.5663444 21.1895804,33.8918162 25.2177677,32.0657143 C26.6433527,33.9462262 28.388842,35.5569132 30.3730473,36.8228571 Z" id="_Path_3" fill="url(#linearGradient-4)"></path>
                        </g>
                    </g>
                </g>
                <g id="_Group_6" transform="translate(211.773913, 37.142857)">
                    <path d="M10.0804155,6.78354037 C10.0804155,6.64099379 10.0804155,6.50403727 10.0804155,6.35590062 L10.0804155,6.78354037 Z" id="_Path_4" fill="#000000" opacity="0.18"></path>
                    <path d="M10.0804155,6.78354037 C10.0804155,6.64099379 10.0804155,6.50403727 10.0804155,6.35590062 L10.0804155,6.78354037 Z" id="_Path_5" fill="#000000" opacity="0.18"></path>
                    <path d="M10.0804155,6.78354037 C10.0804155,6.64099379 10.0804155,6.50403727 10.0804155,6.35590062 L10.0804155,6.78354037 Z" id="_Path_6" fill="#000000" opacity="0.18"></path>
                    <g id="_Group_7" fill="#FFFFFF">
                        <path d="M10.2962216,12.6 C9.86218542,12.6017957 9.45521847,12.3926124 9.20867257,12.0409938 L9.16891881,11.9822981 C6.50090166,13.2542172 3.29374216,12.5386128 1.44370873,10.258594 C-0.406324704,7.97857525 -0.406324704,4.74161109 1.44370873,2.46159231 C3.29374216,0.181573536 6.50090166,-0.534030826 9.16891881,0.737888199 C8.67715844,1.46009332 8.28204326,2.24169098 7.99334359,3.06335404 C6.43485451,2.33239747 4.57007822,2.7566776 3.49556867,4.08670281 C2.42105911,5.41672803 2.42105911,7.30066328 3.49556867,8.63068849 C4.57007822,9.96071371 6.43485451,10.3849938 7.99334359,9.65403727 C7.61918648,8.59431888 7.42724859,7.48058593 7.42543286,6.35869565 L10.0633782,6.35869565 C10.0633782,6.50124224 10.0633782,6.63819876 10.0633782,6.7863354 C10.1357168,8.06257625 10.5395015,9.2992056 11.2361139,10.3779503 L11.3638938,10.5680124 C11.6374404,10.9626604 11.6689691,11.4732167 11.4459988,11.8975724 C11.2230286,12.321928 10.7815096,12.5916631 10.2962216,12.6 Z" id="_Path_7"></path>
                        <path d="M17.7131358,0.109006211 C15.1462556,0.109006211 12.832127,1.63101317 11.8498245,3.96531763 C10.867522,6.29962208 11.4104932,8.98652274 13.2255516,10.773122 C15.04061,12.5597213 17.7703108,13.0941791 20.1417989,12.1272785 C22.513287,11.1603779 24.0595383,8.88253356 24.0595383,6.35590062 C24.0595383,2.9058361 21.2181571,0.109006211 17.7131358,0.109006211 Z M17.7131358,10.0034161 C16.2132049,10.0034161 14.8609669,9.11404653 14.2869682,7.75001896 C13.7129695,6.38599139 14.0302494,4.81592775 15.0908607,3.77194624 C16.151472,2.72796474 17.7465455,2.41565966 19.1323009,2.98065838 C20.5180564,3.5456571 21.4215929,4.87669279 21.4215929,6.35310559 C21.420027,8.36847763 19.7606111,10.0018748 17.7131358,10.0034161 Z" id="_Compound_Path_13"></path>
                    </g>
                    <ellipse id="_Ellipse_" fill="#76CA1C" cx="17.7131358" cy="6.35310559" rx="1.05063486" ry="1.03416149"></ellipse>
                    <g id="_Group_8" transform="translate(24.988072, 2.236025)">
                        <path d="M1.13582147,1.33881988 C0.516161872,1.54358993 0.14270535,2.16458568 0.258399384,2.79782609 C0.41555576,3.67146602 0.41555576,4.5654905 0.258399384,5.43913043 C0.14270535,6.07237084 0.516161872,6.69336659 1.13582147,6.89813665 C1.49954356,7.01770274 1.89810639,6.97571815 2.22788682,6.78309853 C2.55766725,6.59047892 2.78608433,6.2662543 2.85375144,5.8947205 C3.06529226,4.71971258 3.06529226,3.51724394 2.85375144,2.34223602 C2.78608433,1.97070222 2.55766725,1.64647761 2.22788682,1.45385799 C1.89810639,1.26123838 1.49954356,1.21925379 1.13582147,1.33881988 Z" id="_Path_9" fill="#76CA1C"></path>
                        <path d="M4.89255098,0.0950310559 C4.25379458,0.304184144 3.87873378,0.954471887 4.02364756,1.6015528 C4.40225471,3.25786749 4.40225471,4.976294 4.02364756,6.6326087 C3.87873378,7.2796896 4.25379458,7.92997735 4.89255098,8.13913043 C5.24714452,8.25454602 5.63480839,8.21674987 5.95950931,8.03510497 C6.28421023,7.85346007 6.5155728,7.5449591 6.59628319,7.18602484 C7.05724437,5.16144581 7.05724437,3.06153556 6.59628319,1.03695652 C6.51290855,0.680076098 6.2804503,0.374376112 5.95608429,0.195047108 C5.63171829,0.0157181048 5.24554596,-0.020598042 4.89255098,0.0950310559 Z" id="_Path_10" fill="#76CA1C"></path>
                        <ellipse id="_Ellipse_2" fill="#61A617" cx="5.30996537" cy="1.32484472" rx="1.3175529" ry="1.29689441"></ellipse>
                        <ellipse id="_Ellipse_3" fill="#61A617" cx="1.55039631" cy="5.66832298" rx="1.3175529" ry="1.29689441"></ellipse>
                    </g>
                </g>
                <path d="M199.874636,39.2857143 L199.874636,40.8622922 C199.881299,41.1984444 199.84905,41.534278 199.778462,41.8638182 C200.216251,41.3790126 200.852438,41.0937149 201.52707,41.0796564 C202.02526,41.0438789 202.50813,41.2515688 202.806468,41.6299454 C203.080417,41.9968047 203.217391,42.5828625 203.217391,43.3881187 C203.217391,44.1933749 203.062931,44.7775984 202.75401,45.1407891 C202.445089,45.5223228 201.899135,45.7130897 201.116147,45.7130897 C200.376575,45.7269717 199.640036,45.6199202 198.93913,45.3966735 L198.93913,39.2857143 L199.874636,39.2857143 Z M199.874636,42.449876 L199.874636,44.8381302 C200.278141,44.9306616 200.692178,44.9759425 201.107404,44.972951 C201.451592,45.0018641 201.788347,44.8666398 202.005023,44.6125117 C202.213385,44.2319443 202.30618,43.8043782 202.273143,43.3771129 C202.303174,42.9620119 202.228256,42.546117 202.054567,42.1637257 C201.914678,41.9436101 201.634901,41.8335523 201.215235,41.8335523 C201.000928,41.8328746 200.78974,41.8820118 200.600308,41.9766274 C200.343494,42.1129375 200.10057,42.2713605 199.874636,42.449876 Z" id="Shape" fill="url(#linearGradient-5)"></path>
                <path d="M208.208696,41.4285714 L206.322482,46.1609499 C205.869466,47.2728986 205.123919,47.8382963 204.085842,47.8571429 L203.985284,47.2634753 C204.316247,47.1825473 204.623429,47.0337767 204.884207,46.8281191 C205.112964,46.6311891 205.293736,46.3911935 205.414418,46.124199 L205.484504,45.9574067 L205.283389,45.9574067 C205.122028,45.9762567 204.973151,45.874223 204.945151,45.7255937 L203.217391,41.4370524 L204.256485,41.4370524 L205.475362,44.7248398 C205.552494,44.907533 205.609662,45.0969487 205.646005,45.2902375 L205.786176,45.2902375 C205.853214,45.1243875 205.920253,44.9359216 205.987291,44.7248398 L207.184838,41.4370524 L208.208696,41.4285714 Z" id="Shape" fill="url(#linearGradient-6)"></path>
            </g>
        </g>
    </g>
</svg>