<?xml version="1.0" encoding="UTF-8"?>
<svg width="42px" height="73px" viewBox="0 0 42 73" version="1.1" xmlns="http://www.w3.org/2000/svg" xmlns:xlink="http://www.w3.org/1999/xlink">
    <!-- Generator: Sketch 49 (51002) - http://www.bohemiancoding.com/sketch -->
    <title>Screen-smartphone - simple-line-icons</title>
    <desc>Created with Sketch.</desc>
    <defs></defs>
    <g id="Page-1" stroke="none" stroke-width="1" fill="none" fill-rule="evenodd">
        <g id="Landing" transform="translate(-699.000000, -1636.000000)" fill="#76C91C">
            <path d="M733.5,1636.5 C735.375009,1636.5 736.968743,1637.15624 738.28125,1638.46875 C739.593757,1639.78126 740.25,1641.37499 740.25,1643.25 L740.25,1701.75 C740.25,1703.62501 739.593757,1705.21874 738.28125,1706.53125 C736.968743,1707.84376 735.375009,1708.5 733.5,1708.5 L706.5,1708.5 C704.624991,1708.5 703.031257,1707.84376 701.71875,1706.53125 C700.406243,1705.21874 699.75,1703.62501 699.75,1701.75 L699.75,1643.25 C699.75,1641.37499 700.406243,1639.78126 701.71875,1638.46875 C703.031257,1637.15624 704.624991,1636.5 706.5,1636.5 L733.5,1636.5 Z M735.75,1701.75 L735.75,1643.25 C735.75,1642.64062 735.527346,1642.11328 735.082031,1641.66797 C734.636717,1641.22265 734.109378,1641 733.5,1641 L706.5,1641 C705.890622,1641 705.363283,1641.22265 704.917969,1641.66797 C704.472654,1642.11328 704.25,1642.64062 704.25,1643.25 L704.25,1701.75 C704.25,1702.35938 704.472654,1702.88672 704.917969,1703.33203 C705.363283,1703.77735 705.890622,1704 706.5,1704 L733.5,1704 C734.109378,1704 734.636717,1703.77735 735.082031,1703.33203 C735.527346,1702.88672 735.75,1702.35938 735.75,1701.75 Z M720,1692.75 C721.265631,1692.75 722.332027,1693.19531 723.199219,1694.08594 C724.066411,1694.97657 724.5,1696.03124 724.5,1697.25 C724.5,1698.46876 724.066411,1699.52343 723.199219,1700.41406 C722.332027,1701.30469 721.265631,1701.75 720,1701.75 C718.781244,1701.75 717.726567,1701.30469 716.835938,1700.41406 C715.945308,1699.52343 715.5,1698.46876 715.5,1697.25 C715.5,1696.03124 715.945308,1694.97657 716.835938,1694.08594 C717.726567,1693.19531 718.781244,1692.75 720,1692.75 Z M724.5,1643.25 C725.109378,1643.25 725.636717,1643.47265 726.082031,1643.91797 C726.527346,1644.36328 726.75,1644.89062 726.75,1645.5 C726.75,1646.10938 726.527346,1646.63672 726.082031,1647.08203 C725.636717,1647.52735 725.109378,1647.75 724.5,1647.75 L715.5,1647.75 C714.890622,1647.75 714.363283,1647.52735 713.917969,1647.08203 C713.472654,1646.63672 713.25,1646.10938 713.25,1645.5 C713.25,1644.89062 713.472654,1644.36328 713.917969,1643.91797 C714.363283,1643.47265 714.890622,1643.25 715.5,1643.25 L724.5,1643.25 Z" id="Screen-smartphone---simple-line-icons"></path>
        </g>
    </g>
</svg>