<?xml version="1.0" encoding="UTF-8"?>
<svg width="62px" height="73px" viewBox="0 0 62 73" version="1.1" xmlns="http://www.w3.org/2000/svg" xmlns:xlink="http://www.w3.org/1999/xlink">
    <!-- Generator: Sketch 49 (51002) - http://www.bohemiancoding.com/sketch -->
    <title>Control-play - simple-line-icons</title>
    <desc>Created with Sketch.</desc>
    <defs></defs>
    <g id="Page-1" stroke="none" stroke-width="1" fill="none" fill-rule="evenodd">
        <g id="Landing" transform="translate(-813.000000, -3446.000000)" fill="#76C91C">
            <path d="M818.195312,3451.07031 L818.125,3513.92969 L869.875,3482.5 L818.195312,3451.07031 Z M818.195312,3446.57031 C818.570314,3446.57031 818.968748,3446.62891 819.390625,3446.74609 C819.812502,3446.86328 820.187498,3447.03906 820.515625,3447.27344 L872.265625,3478.70312 C872.921878,3479.07813 873.437498,3479.60547 873.8125,3480.28516 C874.187502,3480.96485 874.375,3481.70312 874.375,3482.5 C874.375,3483.29688 874.187502,3484.03515 873.8125,3484.71484 C873.437498,3485.39453 872.921878,3485.92187 872.265625,3486.29688 L820.445312,3517.72656 C820.117186,3517.96094 819.74219,3518.13672 819.320312,3518.25391 C818.898435,3518.37109 818.500002,3518.42969 818.125,3518.42969 C817.749998,3518.42969 817.375002,3518.38281 817,3518.28906 C816.624998,3518.19531 816.273439,3518.05469 815.945312,3517.86719 C815.195309,3517.44531 814.621096,3516.88282 814.222656,3516.17969 C813.824217,3515.47656 813.625,3514.72657 813.625,3513.92969 L813.695312,3451.07031 C813.695312,3450.27343 813.894529,3449.52344 814.292969,3448.82031 C814.691408,3448.11718 815.265621,3447.55469 816.015625,3447.13281 C816.343752,3446.94531 816.695311,3446.80469 817.070312,3446.71094 C817.445314,3446.61719 817.820311,3446.57031 818.195312,3446.57031 Z" id="Control-play---simple-line-icons"></path>
        </g>
    </g>
</svg>