<svg xmlns="http://www.w3.org/2000/svg" viewBox="0 0 433.63 637.71"><defs><style>.cls-1{fill:none;stroke:#fff;stroke-linecap:round;stroke-miterlimit:10;stroke-width:3px;}.cls-2{fill:#79c730;}.cls-3{fill:#fff;}</style></defs><title>route_2</title><g id="Layer_2" data-name="Layer 2"><g id="Layer_1-2" data-name="Layer 1"><path class="cls-1" d="M320.53,1.5v490a107,107,0,0,1-107,107h0a107,107,0,0,1-107-107V1.5" transform="translate(-1.39)"/><circle class="cls-2" cx="105.44" cy="140.5" r="10"/><circle class="cls-2" cx="105.24" cy="231.3" r="10"/><circle class="cls-2" cx="104.84" cy="322.1" r="10"/><circle class="cls-2" cx="105.04" cy="412.9" r="10"/><circle class="cls-2" cx="105.64" cy="503.7" r="10"/><circle class="cls-2" cx="319.44" cy="51.5" r="10"/><circle class="cls-2" cx="319.24" cy="142.3" r="10"/><circle class="cls-2" cx="318.84" cy="233.1" r="10"/><circle class="cls-2" cx="319.04" cy="323.9" r="10"/><circle class="cls-2" cx="319.64" cy="414.7" r="10"/><circle class="cls-2" cx="318.64" cy="505.5" r="10"/><circle class="cls-2" cx="212.64" cy="598.5" r="10"/><path class="cls-3" d="M38.83,134.64H34.69a1.14,1.14,0,0,0-.82.25,1.09,1.09,0,0,0-.26.81v2.56h4.61v1.14H33.62v5.1H32.21v-9.07a1.87,1.87,0,0,1,.58-1.46,2.23,2.23,0,0,1,1.55-.52q3.15,0,4.58.11Z" transform="translate(-1.39)"/><path class="cls-3" d="M40.4,137.88l-.13-1a23.5,23.5,0,0,1,3.76-.35,3,3,0,0,1,2,.57A2.44,2.44,0,0,1,46.7,139v5.49H45.63l-.16-1.28a5.56,5.56,0,0,1-1.4,1,3.91,3.91,0,0,1-1.82.43,2.46,2.46,0,0,1-1.7-.57,2,2,0,0,1-.63-1.61v-.85a1.79,1.79,0,0,1,.57-1.42,2.32,2.32,0,0,1,1.59-.5h3.25V139a1.36,1.36,0,0,0-.34-1,1.9,1.9,0,0,0-1.25-.3Q42.59,137.67,40.4,137.88Zm.91,3.94v.5a1.19,1.19,0,0,0,.29.89,1.29,1.29,0,0,0,.93.28,3.58,3.58,0,0,0,1.38-.29,4.62,4.62,0,0,0,1.42-.88v-1.57h-3a1,1,0,0,0-.78.29A1.18,1.18,0,0,0,41.31,141.81Z" transform="translate(-1.39)"/><path class="cls-3" d="M55.79,133.3v11.2H54.74l-.13-1.12a4.64,4.64,0,0,1-3.09,1.31,2.29,2.29,0,0,1-2.09-1,5.86,5.86,0,0,1-.65-3.1,5.31,5.31,0,0,1,.7-3.14,2.64,2.64,0,0,1,2.24-.92,5.44,5.44,0,0,1,2.77.72q-.06-.7-.06-1.54v-2.4Zm-1.36,9.14v-4.3A9.5,9.5,0,0,0,52,137.7a1.66,1.66,0,0,0-1.46.59,4.28,4.28,0,0,0-.42,2.27,4.61,4.61,0,0,0,.41,2.31,1.52,1.52,0,0,0,1.38.63,2.57,2.57,0,0,0,1.1-.23A9.84,9.84,0,0,0,54.43,142.44Z" transform="translate(-1.39)"/><path class="cls-3" d="M63,141.27H59.36a2.63,2.63,0,0,0,.66,1.81,2.79,2.79,0,0,0,1.81.46,19.57,19.57,0,0,0,2.7-.19l.14.91a8.22,8.22,0,0,1-3,.43,3.75,3.75,0,0,1-2.87-.94,6.37,6.37,0,0,1,0-6.34,3.6,3.6,0,0,1,2.75-.9,4.11,4.11,0,0,1,2.54.63,2.29,2.29,0,0,1,.8,1.91Q64.88,141.27,63,141.27Zm-3.65-1.06h3.3q.85,0,.85-1.15A1.29,1.29,0,0,0,63,138a2.55,2.55,0,0,0-1.47-.32,2.23,2.23,0,0,0-1.71.54A3.2,3.2,0,0,0,59.34,140.21Z" transform="translate(-1.39)"/><path class="cls-3" d="M73.76,136.71l-3.12,8.22q-1,2.75-3.41,2.86l-.13-.9a3.56,3.56,0,0,0,1.43-.79,3.75,3.75,0,0,0,.84-1.27l.13-.34h-.3a.45.45,0,0,1-.48-.35l-2.83-7.44h1.46l2.06,5.81q.22.66.29.94h.22q.13-.32.34-.94l2-5.81Z" transform="translate(-1.39)"/><path class="cls-3" d="M75.73,133.4h.64a.37.37,0,0,1,.42.42v.91a.37.37,0,0,1-.42.42h-.64a.37.37,0,0,1-.42-.42v-.91A.37.37,0,0,1,75.73,133.4Zm1,11.1H75.38v-7.79h1.34Z" transform="translate(-1.39)"/><circle class="cls-2" cx="104.64" cy="51.5" r="10"/><path class="cls-3" d="M58,45.71H54.38V55.5H53V45.71H49.42V44.46H58Z" transform="translate(-1.39)"/><path class="cls-3" d="M65.12,49.74v.06a2.19,2.19,0,0,1,1.7.84,3.68,3.68,0,0,1,.5,2.1A2.74,2.74,0,0,1,66.54,55a4.6,4.6,0,0,1-2.74.61q-2.66,0-4.08-.13v-11q1.26-.13,3.58-.13a5,5,0,0,1,2.87.6A2.69,2.69,0,0,1,67,47.21,3.07,3.07,0,0,1,66.54,49,1.89,1.89,0,0,1,65.12,49.74Zm-4-.5h2.37a2.81,2.81,0,0,0,1.7-.4,1.85,1.85,0,0,0,.46-1.47,1.74,1.74,0,0,0-.5-1.47,3.4,3.4,0,0,0-1.88-.37H61.1Zm0,1.07v4.1l2.48,0A3.12,3.12,0,0,0,65.42,54a1.89,1.89,0,0,0,.49-1.54,2.21,2.21,0,0,0-.52-1.71,3.09,3.09,0,0,0-1.9-.48Z" transform="translate(-1.39)"/><path class="cls-3" d="M73.6,50.83l-2.29-.58a2.7,2.7,0,0,1-1.67-1,3.6,3.6,0,0,1-.5-2,4.87,4.87,0,0,1,.2-1.54,1.59,1.59,0,0,1,.69-.88,3,3,0,0,1,1.09-.39,10.72,10.72,0,0,1,1.61-.1,17.1,17.1,0,0,1,3.28.32l-.1,1q-1.55-.08-3.12-.08-.7,0-1,0a1.86,1.86,0,0,0-.66.19.8.8,0,0,0-.42.5,3.41,3.41,0,0,0-.1,1,1.94,1.94,0,0,0,.31,1.25A2,2,0,0,0,72,49l2.24.56a2.78,2.78,0,0,1,1.73,1,3.67,3.67,0,0,1,.5,2.06,2.84,2.84,0,0,1-.82,2.42,5.14,5.14,0,0,1-2.87.59,19.24,19.24,0,0,1-3.42-.3l.1-1q2.69.1,3.38.08a3.22,3.22,0,0,0,1.77-.34A1.73,1.73,0,0,0,75,52.65a2,2,0,0,0-.31-1.27A2.07,2.07,0,0,0,73.6,50.83Z" transform="translate(-1.39)"/><path class="cls-3" d="M19.54,227.51a4.05,4.05,0,0,1,3.4-1.26,4,4,0,0,1,3.39,1.26q1,1.26,1,4.47t-1,4.47a4,4,0,0,1-3.39,1.26,4.05,4.05,0,0,1-3.4-1.26q-1-1.26-1-4.47T19.54,227.51Zm5.66,1a2.48,2.48,0,0,0-2.26-1,2.48,2.48,0,0,0-2.26,1,10.11,10.11,0,0,0,0,7,2.48,2.48,0,0,0,2.26,1,2.48,2.48,0,0,0,2.26-1,10.11,10.11,0,0,0,0-7Z" transform="translate(-1.39)"/><path class="cls-3" d="M30.69,229.71l.1,1.23a6,6,0,0,1,3.49-1.42,1.88,1.88,0,0,1,2.11,2.14v5.84H35V232a1.7,1.7,0,0,0-.26-1.07,1.08,1.08,0,0,0-.86-.3,3.14,3.14,0,0,0-1.29.29,15.9,15.9,0,0,0-1.72.94v5.6H29.54v-7.79Z" transform="translate(-1.39)"/><path class="cls-3" d="M39.25,226.4h.64a.37.37,0,0,1,.42.42v.91a.37.37,0,0,1-.42.42h-.64a.37.37,0,0,1-.42-.42v-.91A.37.37,0,0,1,39.25,226.4Zm1,11.1H38.9v-7.79h1.34Z" transform="translate(-1.39)"/><path class="cls-3" d="M43.92,229.71,44,231a4.46,4.46,0,0,1,1.5-1.06,4.3,4.3,0,0,1,1.73-.38,2.22,2.22,0,0,1,2,1,6,6,0,0,1,.64,3.1,5.27,5.27,0,0,1-.7,3.13,2.64,2.64,0,0,1-2.24.92,5.54,5.54,0,0,1-2.88-.8q0,.54,0,1.57v2.26H42.8v-11Zm.24,2.19V236a9.66,9.66,0,0,0,2.5.48,1.68,1.68,0,0,0,1.47-.59,4.29,4.29,0,0,0,.42-2.27,4.78,4.78,0,0,0-.39-2.29,1.43,1.43,0,0,0-1.34-.66,2.83,2.83,0,0,0-1.21.28A8.61,8.61,0,0,0,44.16,231.9Z" transform="translate(-1.39)"/><path class="cls-3" d="M52.13,230.88l-.13-1a23.5,23.5,0,0,1,3.76-.35,3,3,0,0,1,2,.57,2.44,2.44,0,0,1,.66,1.93v5.49H57.36l-.16-1.28a5.56,5.56,0,0,1-1.4,1,3.91,3.91,0,0,1-1.82.43,2.46,2.46,0,0,1-1.7-.57,2,2,0,0,1-.63-1.61v-.85a1.79,1.79,0,0,1,.57-1.42,2.32,2.32,0,0,1,1.59-.5h3.25V232a1.36,1.36,0,0,0-.34-1,1.9,1.9,0,0,0-1.25-.3Q54.32,230.67,52.13,230.88Zm.91,3.94v.5a1.19,1.19,0,0,0,.29.89,1.29,1.29,0,0,0,.93.28,3.58,3.58,0,0,0,1.38-.29,4.62,4.62,0,0,0,1.42-.88v-1.57H54a1,1,0,0,0-.78.29A1.18,1.18,0,0,0,53,234.81Z" transform="translate(-1.39)"/><path class="cls-3" d="M62,229.71l.1,1.23a6,6,0,0,1,3.49-1.42,1.88,1.88,0,0,1,2.11,2.14v5.84H66.35V232A1.7,1.7,0,0,0,66.1,231a1.08,1.08,0,0,0-.86-.3,3.14,3.14,0,0,0-1.29.29,15.9,15.9,0,0,0-1.72.94v5.6H60.86v-7.79Z" transform="translate(-1.39)"/><path class="cls-3" d="M76.78,229.71v7.79H75.7l-.1-1.12a5.65,5.65,0,0,1-3.36,1.33,1.89,1.89,0,0,1-2.13-2.14v-5.86h1.36v5.47a1.45,1.45,0,0,0,.27,1,1.28,1.28,0,0,0,1,.3,3,3,0,0,0,1.2-.26,10.91,10.91,0,0,0,1.52-.86v-5.7Z" transform="translate(-1.39)"/><path class="cls-3" d="M1.39,326.5v-11a37.72,37.72,0,0,1,3.79-.14A4.06,4.06,0,0,1,8,316a3.73,3.73,0,0,1,.77,2.73A3.81,3.81,0,0,1,8,321.5a3.76,3.76,0,0,1-2.65.73,22,22,0,0,1-2.54-.14v4.42ZM2.8,321H5.17a2.44,2.44,0,0,0,1.69-.47,3.64,3.64,0,0,0,0-3.54,2.36,2.36,0,0,0-1.68-.46l-2.37,0Z" transform="translate(-1.39)"/><path class="cls-3" d="M10.67,319.88l-.13-1a23.5,23.5,0,0,1,3.76-.35,3,3,0,0,1,2,.57A2.44,2.44,0,0,1,17,321v5.49H15.9l-.16-1.28a5.56,5.56,0,0,1-1.4,1,3.91,3.91,0,0,1-1.82.43,2.46,2.46,0,0,1-1.7-.57,2,2,0,0,1-.63-1.61v-.85a1.79,1.79,0,0,1,.57-1.42,2.32,2.32,0,0,1,1.59-.5H15.6V321a1.36,1.36,0,0,0-.34-1,1.9,1.9,0,0,0-1.25-.3Q12.86,319.67,10.67,319.88Zm.91,3.94v.5a1.19,1.19,0,0,0,.29.89,1.29,1.29,0,0,0,.93.28,3.58,3.58,0,0,0,1.38-.29,4.62,4.62,0,0,0,1.42-.88v-1.57h-3a1,1,0,0,0-.78.29A1.18,1.18,0,0,0,11.58,323.81Z" transform="translate(-1.39)"/><path class="cls-3" d="M20.78,315.3v9.06a1,1,0,0,0,.26.78,1.11,1.11,0,0,0,.8.26h.75l.16,1a3.53,3.53,0,0,1-1.42.21,1.86,1.86,0,0,1-1.39-.52,2,2,0,0,1-.51-1.46V315.3Z" transform="translate(-1.39)"/><path class="cls-3" d="M25.28,318.71l.08,1.23a5,5,0,0,1,3.18-1.42,1.77,1.77,0,0,1,2,1.38,4.83,4.83,0,0,1,3.14-1.38,2.07,2.07,0,0,1,1.54.54,2.19,2.19,0,0,1,.54,1.6v5.84H34.38V321a1.66,1.66,0,0,0-.3-1,1.15,1.15,0,0,0-.92-.33,2.41,2.41,0,0,0-1.08.26,11.07,11.07,0,0,0-1.48,1v5.62H29.3V321A1.54,1.54,0,0,0,29,320a1.2,1.2,0,0,0-.92-.32,2.41,2.41,0,0,0-1.08.26,11.75,11.75,0,0,0-1.48.94v5.63H24.16v-7.79Z" transform="translate(-1.39)"/><path class="cls-3" d="M45.42,319.46l-1.15.1a2.78,2.78,0,0,1,.32,1.44,2.25,2.25,0,0,1-.75,1.9,4.34,4.34,0,0,1-2.59.58,7.42,7.42,0,0,1-1.62-.16.84.84,0,0,0-.18.81.79.79,0,0,0,.72.54l2.91.46a2.39,2.39,0,0,1,1.53.68,2.28,2.28,0,0,1,.44,1.51,2.09,2.09,0,0,1-.81,1.89,5.69,5.69,0,0,1-2.9.53,5.9,5.9,0,0,1-2.94-.52,2,2,0,0,1-.82-1.85,1.91,1.91,0,0,1,.29-1.1,2.74,2.74,0,0,1,1-.78,1.37,1.37,0,0,1-.54-1.23,1.56,1.56,0,0,1,.61-1.2,2.09,2.09,0,0,1-1-2,2.28,2.28,0,0,1,.74-1.92,4.38,4.38,0,0,1,2.6-.58,7,7,0,0,1,1.81.19H45.5Zm-3,6.67-2.66-.37a1.83,1.83,0,0,0-.82,1.49,1.1,1.1,0,0,0,.48,1.07,4.78,4.78,0,0,0,1.94.26,4.57,4.57,0,0,0,1.91-.26,1.1,1.1,0,0,0,.49-1.06,1,1,0,0,0-.25-.78A2.48,2.48,0,0,0,42.38,326.13Zm-2.75-4a2.92,2.92,0,0,0,1.62.33,2.93,2.93,0,0,0,1.62-.33,1.57,1.57,0,0,0,0-2.22,2.92,2.92,0,0,0-1.62-.33,2.92,2.92,0,0,0-1.62.33,1.56,1.56,0,0,0,0,2.22Z" transform="translate(-1.39)"/><path class="cls-3" d="M52,318.52l-.16,1.28h-.45a3.55,3.55,0,0,0-1.22.23,17.62,17.62,0,0,0-1.69.76v5.71H47.1v-7.79h1.06l.14,1.23a5.56,5.56,0,0,1,3.33-1.42Z" transform="translate(-1.39)"/><path class="cls-3" d="M56.61,318.52a3.66,3.66,0,0,1,2.84.93,6.5,6.5,0,0,1,0,6.34,3.65,3.65,0,0,1-2.84.93,3.66,3.66,0,0,1-2.83-.93,6.45,6.45,0,0,1,0-6.34A3.66,3.66,0,0,1,56.61,318.52Zm1.77,1.78a2.13,2.13,0,0,0-1.77-.62,2.1,2.1,0,0,0-1.76.62,5.85,5.85,0,0,0,0,4.64,2.1,2.1,0,0,0,1.76.62,2.13,2.13,0,0,0,1.77-.62,5.76,5.76,0,0,0,0-4.64Z" transform="translate(-1.39)"/><path class="cls-3" d="M69.23,318.71l-2.85,7.46a.48.48,0,0,1-.48.34H64.67a.48.48,0,0,1-.48-.34l-2.85-7.46H62.8l1.92,5.46q.16.45.46,1.36h.21l.48-1.36,1.92-5.46Z" transform="translate(-1.39)"/><path class="cls-3" d="M75.38,323.27H71.74a2.63,2.63,0,0,0,.66,1.81,2.79,2.79,0,0,0,1.81.46,19.57,19.57,0,0,0,2.7-.19l.14.91a8.22,8.22,0,0,1-3,.43,3.75,3.75,0,0,1-2.87-.94,6.37,6.37,0,0,1,0-6.34,3.6,3.6,0,0,1,2.75-.9,4.11,4.11,0,0,1,2.54.63,2.29,2.29,0,0,1,.8,1.91Q77.26,323.27,75.38,323.27Zm-3.65-1.06H75q.85,0,.85-1.15a1.29,1.29,0,0,0-.45-1.07,2.55,2.55,0,0,0-1.47-.32,2.23,2.23,0,0,0-1.71.54A3.2,3.2,0,0,0,71.73,322.21Z" transform="translate(-1.39)"/><path class="cls-3" d="M5.85,410.51a4.05,4.05,0,0,1,3.4-1.26,4,4,0,0,1,3.39,1.26q1,1.26,1,4.47t-1,4.47a4,4,0,0,1-3.39,1.26,4.05,4.05,0,0,1-3.4-1.26q-1-1.26-1-4.47T5.85,410.51Zm5.66,1a2.48,2.48,0,0,0-2.26-1,2.48,2.48,0,0,0-2.26,1,10.11,10.11,0,0,0,0,7,2.48,2.48,0,0,0,2.26,1,2.48,2.48,0,0,0,2.26-1,10.11,10.11,0,0,0,0-7Z" transform="translate(-1.39)"/><path class="cls-3" d="M17.17,409.3v2.91a8,8,0,0,1-.14,1.73,4.16,4.16,0,0,1,3-1.42,2.45,2.45,0,0,1,2.14,1,5.48,5.48,0,0,1,.68,3.11,5.1,5.1,0,0,1-.77,3.11,3.19,3.19,0,0,1-2.69,1,10.72,10.72,0,0,1-3.58-.56V409.3Zm0,5.55v4.42a7.21,7.21,0,0,0,2.19.27,1.87,1.87,0,0,0,1.6-.66,4.21,4.21,0,0,0,.48-2.3,4.75,4.75,0,0,0-.4-2.26,1.62,1.62,0,0,0-1.49-.62,2.3,2.3,0,0,0-1.08.27A9.33,9.33,0,0,0,17.17,414.85Z" transform="translate(-1.39)"/><path class="cls-3" d="M25,413.88l-.13-1a23.5,23.5,0,0,1,3.76-.35,3,3,0,0,1,2,.57,2.44,2.44,0,0,1,.66,1.93v5.49H30.24l-.16-1.28a5.56,5.56,0,0,1-1.4,1,3.91,3.91,0,0,1-1.82.43,2.46,2.46,0,0,1-1.7-.57,2,2,0,0,1-.63-1.61v-.85a1.79,1.79,0,0,1,.57-1.42,2.32,2.32,0,0,1,1.59-.5h3.25V415a1.36,1.36,0,0,0-.34-1,1.9,1.9,0,0,0-1.25-.3Q27.2,413.67,25,413.88Zm.91,3.94v.5a1.19,1.19,0,0,0,.29.89,1.29,1.29,0,0,0,.93.28,3.58,3.58,0,0,0,1.38-.29,4.62,4.62,0,0,0,1.42-.88v-1.57h-3a1,1,0,0,0-.78.29A1.18,1.18,0,0,0,25.92,417.81Z" transform="translate(-1.39)"/><path class="cls-3" d="M34.9,412.71l.1,1.23a6,6,0,0,1,3.49-1.42,1.88,1.88,0,0,1,2.11,2.14v5.84H39.23V415A1.7,1.7,0,0,0,39,414a1.08,1.08,0,0,0-.86-.3,3.14,3.14,0,0,0-1.29.29,15.9,15.9,0,0,0-1.72.94v5.6H33.74v-7.79Z" transform="translate(-1.39)"/><path class="cls-3" d="M43.46,409.4h.64a.37.37,0,0,1,.42.42v.91a.37.37,0,0,1-.42.42h-.64a.37.37,0,0,1-.42-.42v-.91A.37.37,0,0,1,43.46,409.4Zm1,11.1H43.1v-7.79h1.34Z" transform="translate(-1.39)"/><path class="cls-3" d="M49.34,416.6H48.29a11.56,11.56,0,0,1,.08,1.25v2.66H47V409.3h1.38v5a9.33,9.33,0,0,1-.08,1.33h1l2.46-2.9h1.58l-2.45,2.86a2,2,0,0,1-.54.53v0a2.08,2.08,0,0,1,.54.62l2.7,3.74H52Z" transform="translate(-1.39)"/><path class="cls-3" d="M58.19,412.52a3.66,3.66,0,0,1,2.84.93,6.5,6.5,0,0,1,0,6.34,3.65,3.65,0,0,1-2.84.93,3.66,3.66,0,0,1-2.83-.93,6.45,6.45,0,0,1,0-6.34A3.66,3.66,0,0,1,58.19,412.52ZM60,414.29a2.13,2.13,0,0,0-1.77-.62,2.1,2.1,0,0,0-1.76.62,5.85,5.85,0,0,0,0,4.64,2.1,2.1,0,0,0,1.76.62,2.13,2.13,0,0,0,1.77-.62,5.76,5.76,0,0,0,0-4.64Z" transform="translate(-1.39)"/><path class="cls-3" d="M68.86,412.52l-.16,1.28h-.45A3.55,3.55,0,0,0,67,414a17.62,17.62,0,0,0-1.69.76v5.71H64v-7.79H65l.14,1.23a5.56,5.56,0,0,1,3.33-1.42Z" transform="translate(-1.39)"/><path class="cls-3" d="M73.49,412.52a3.66,3.66,0,0,1,2.84.93,6.5,6.5,0,0,1,0,6.34,3.65,3.65,0,0,1-2.84.93,3.66,3.66,0,0,1-2.83-.93,6.45,6.45,0,0,1,0-6.34A3.66,3.66,0,0,1,73.49,412.52Zm1.77,1.78a2.13,2.13,0,0,0-1.77-.62,2.1,2.1,0,0,0-1.76.62,5.85,5.85,0,0,0,0,4.64,2.1,2.1,0,0,0,1.76.62,2.13,2.13,0,0,0,1.77-.62,5.76,5.76,0,0,0,0-4.64Z" transform="translate(-1.39)"/><path class="cls-3" d="M24.14,506H19.6l-1.09,3.46H17.06l3.55-10.66a.48.48,0,0,1,.53-.38h1.47a.48.48,0,0,1,.53.38l3.55,10.66H25.23Zm-.38-1.22-1.39-4.38q-.14-.41-.27-.9h-.45l-.27.9L20,504.83Z" transform="translate(-1.39)"/><path class="cls-3" d="M29.25,501.71l.1,1.23a6,6,0,0,1,3.49-1.42,1.88,1.88,0,0,1,2.11,2.14v5.84H33.58V504a1.7,1.7,0,0,0-.26-1.07,1.08,1.08,0,0,0-.86-.3,3.14,3.14,0,0,0-1.29.29,15.9,15.9,0,0,0-1.72.94v5.6H28.1v-7.79Z" transform="translate(-1.39)"/><path class="cls-3" d="M39.34,502.78v4.58a1.1,1.1,0,0,0,.24.8,1.13,1.13,0,0,0,.82.24h1.18l.16,1a6.53,6.53,0,0,1-1.76.21,1.94,1.94,0,0,1-1.49-.54,2.2,2.2,0,0,1-.51-1.57v-4.75H36.58v-1l1.41-.06V499.4h1.36v2.3h2.48v1.07Z" transform="translate(-1.39)"/><path class="cls-3" d="M44.86,498.3v3.09a10.21,10.21,0,0,1-.1,1.52,6,6,0,0,1,3.46-1.39,1.88,1.88,0,0,1,2.11,2.14v5.84H49V504a1.74,1.74,0,0,0-.25-1.07,1.05,1.05,0,0,0-.86-.3,3.29,3.29,0,0,0-1.32.29,13.42,13.42,0,0,0-1.69.93v5.62H43.49V498.3Z" transform="translate(-1.39)"/><path class="cls-3" d="M56.08,501.52a3.66,3.66,0,0,1,2.84.93,6.5,6.5,0,0,1,0,6.34,3.65,3.65,0,0,1-2.84.93,3.66,3.66,0,0,1-2.83-.93,6.45,6.45,0,0,1,0-6.34A3.66,3.66,0,0,1,56.08,501.52Zm1.77,1.78a2.13,2.13,0,0,0-1.77-.62,2.1,2.1,0,0,0-1.76.62,5.85,5.85,0,0,0,0,4.64,2.1,2.1,0,0,0,1.76.62,2.13,2.13,0,0,0,1.77-.62,5.76,5.76,0,0,0,0-4.64Z" transform="translate(-1.39)"/><path class="cls-3" d="M63,501.71l.1,1.23a6,6,0,0,1,3.49-1.42,1.88,1.88,0,0,1,2.11,2.14v5.84H67.36V504A1.7,1.7,0,0,0,67.1,503a1.08,1.08,0,0,0-.86-.3A3.14,3.14,0,0,0,65,503a15.9,15.9,0,0,0-1.72.94v5.6H61.87v-7.79Z" transform="translate(-1.39)"/><path class="cls-3" d="M78.08,501.71,75,509.93q-1,2.75-3.41,2.86l-.13-.9a3.56,3.56,0,0,0,1.43-.79,3.75,3.75,0,0,0,.84-1.27l.13-.34h-.3a.45.45,0,0,1-.48-.35l-2.83-7.44h1.46l2.06,5.81q.22.66.29.94h.22q.13-.32.34-.94l2-5.81Z" transform="translate(-1.39)"/><path class="cls-3" d="M358.27,500.46h1.58a.52.52,0,0,1,.58.59l.46,10.45h-1.41l-.4-9.87h-.34l-2.46,8.14a.58.58,0,0,1-.61.48h-1.26a.61.61,0,0,1-.64-.48l-2.46-8.14H351l-.38,9.87H349.2l.43-10.45a.54.54,0,0,1,.59-.59h1.6a.58.58,0,0,1,.59.48l2.06,6.74c.06.19.15.48.25.86l.17.63h.29l.18-.7q.14-.52.23-.82l2.06-6.7A.58.58,0,0,1,358.27,500.46Z" transform="translate(-1.39)"/><path class="cls-3" d="M363.36,504.88l-.13-1a23.51,23.51,0,0,1,3.76-.35,3,3,0,0,1,2,.57,2.44,2.44,0,0,1,.66,1.93v5.49h-1.07l-.16-1.28a5.55,5.55,0,0,1-1.4,1,3.91,3.91,0,0,1-1.82.43,2.46,2.46,0,0,1-1.7-.57,2,2,0,0,1-.63-1.61v-.85a1.8,1.8,0,0,1,.57-1.42,2.32,2.32,0,0,1,1.59-.5h3.25V506a1.36,1.36,0,0,0-.34-1,1.91,1.91,0,0,0-1.25-.3Q365.55,504.67,363.36,504.88Zm.91,3.94v.5a1.19,1.19,0,0,0,.29.89,1.29,1.29,0,0,0,.93.28,3.59,3.59,0,0,0,1.38-.29,4.63,4.63,0,0,0,1.42-.88v-1.57h-3a1,1,0,0,0-.78.29A1.17,1.17,0,0,0,364.27,508.81Z" transform="translate(-1.39)"/><path class="cls-3" d="M377,503.52l-.16,1.28h-.45a3.55,3.55,0,0,0-1.22.23,17.56,17.56,0,0,0-1.69.76v5.71H372.1v-7.79h1.06l.14,1.23a5.56,5.56,0,0,1,3.33-1.42Z" transform="translate(-1.39)"/><path class="cls-3" d="M385.42,503.71l-3.12,8.22q-1,2.75-3.41,2.86l-.13-.9a3.56,3.56,0,0,0,1.43-.79,3.76,3.76,0,0,0,.84-1.27l.13-.34h-.3a.45.45,0,0,1-.48-.35l-2.83-7.44H379l2.06,5.81q.22.66.29.94h.22q.13-.32.34-.94l2-5.81Z" transform="translate(-1.39)"/><path class="cls-3" d="M388.35,500.3v9.06a1,1,0,0,0,.26.78,1.11,1.11,0,0,0,.8.26h.75l.16,1a3.53,3.53,0,0,1-1.42.21,1.86,1.86,0,0,1-1.39-.52,2,2,0,0,1-.51-1.46V500.3Z" transform="translate(-1.39)"/><path class="cls-3" d="M391.77,504.88l-.13-1a23.51,23.51,0,0,1,3.76-.35,3,3,0,0,1,2,.57,2.44,2.44,0,0,1,.66,1.93v5.49H397l-.16-1.28a5.55,5.55,0,0,1-1.4,1,3.91,3.91,0,0,1-1.82.43,2.46,2.46,0,0,1-1.7-.57,2,2,0,0,1-.63-1.61v-.85a1.8,1.8,0,0,1,.57-1.42,2.32,2.32,0,0,1,1.59-.5h3.25V506a1.36,1.36,0,0,0-.34-1,1.91,1.91,0,0,0-1.25-.3Q394,504.67,391.77,504.88Zm.91,3.94v.5a1.19,1.19,0,0,0,.29.89,1.29,1.29,0,0,0,.93.28,3.59,3.59,0,0,0,1.38-.29,4.63,4.63,0,0,0,1.42-.88v-1.57h-3a1,1,0,0,0-.78.29A1.17,1.17,0,0,0,392.69,508.81Z" transform="translate(-1.39)"/><path class="cls-3" d="M401.66,503.71l.1,1.23a6,6,0,0,1,3.49-1.42,1.88,1.88,0,0,1,2.11,2.14v5.84H406V506a1.7,1.7,0,0,0-.26-1.07,1.08,1.08,0,0,0-.86-.3,3.14,3.14,0,0,0-1.29.29,15.9,15.9,0,0,0-1.72.94v5.6h-1.36v-7.79Z" transform="translate(-1.39)"/><path class="cls-3" d="M416.46,500.3v11.2h-1.06l-.13-1.12a4.64,4.64,0,0,1-3.09,1.31,2.29,2.29,0,0,1-2.09-1,5.86,5.86,0,0,1-.65-3.1,5.31,5.31,0,0,1,.7-3.14,2.64,2.64,0,0,1,2.24-.92,5.45,5.45,0,0,1,2.77.72q-.06-.7-.06-1.54v-2.4Zm-1.36,9.14v-4.3a9.5,9.5,0,0,0-2.38-.43,1.66,1.66,0,0,0-1.46.59,4.28,4.28,0,0,0-.42,2.27,4.6,4.6,0,0,0,.41,2.31,1.52,1.52,0,0,0,1.38.63,2.57,2.57,0,0,0,1.1-.23A9.87,9.87,0,0,0,415.1,509.44Z" transform="translate(-1.39)"/><path class="cls-3" d="M357.92,409.46v10.48a.49.49,0,0,1-.54.56H356a.65.65,0,0,1-.62-.45l-3.73-7.82q-.54-1.18-.62-1.46h-.26q.06.64.06,1.46v8.27h-1.41V410a.49.49,0,0,1,.56-.56h1.33a.65.65,0,0,1,.62.45l3.62,7.63q.4.78.75,1.6h.27q0-.86,0-1.68v-8Z" transform="translate(-1.39)"/><path class="cls-3" d="M365.25,417.27h-3.63a2.63,2.63,0,0,0,.66,1.81,2.78,2.78,0,0,0,1.81.46,19.56,19.56,0,0,0,2.7-.19l.14.91a8.22,8.22,0,0,1-3,.43,3.75,3.75,0,0,1-2.87-.94,6.37,6.37,0,0,1,0-6.34,3.6,3.6,0,0,1,2.75-.9,4.11,4.11,0,0,1,2.54.63,2.29,2.29,0,0,1,.8,1.91Q367.14,417.27,365.25,417.27Zm-3.65-1.06h3.3q.85,0,.85-1.15a1.29,1.29,0,0,0-.45-1.07,2.55,2.55,0,0,0-1.47-.32,2.23,2.23,0,0,0-1.71.54A3.19,3.19,0,0,0,361.6,416.21Z" transform="translate(-1.39)"/><path class="cls-3" d="M380.69,412.71l-2.27,7.41a.48.48,0,0,1-.53.38h-1.23a.54.54,0,0,1-.34-.12.49.49,0,0,1-.18-.31l-1.28-5.3-.13-.63q-.08-.41-.13-.6h-.19l-.27,1.23-1.26,5.3a.52.52,0,0,1-.54.43H371.1a.48.48,0,0,1-.53-.38l-2.27-7.41h1.41l1.62,5.74a10.26,10.26,0,0,1,.26,1.17h.21l.29-1.17,1.3-5.31a.47.47,0,0,1,.51-.43h1.23a.5.5,0,0,1,.51.45l1.28,5.3c0,.12.06.31.13.57l.14.6h.21l.1-.5a6,6,0,0,1,.17-.66l1.62-5.74Z" transform="translate(-1.39)"/><path class="cls-3" d="M392.27,420.5l-.16-1.17a4.57,4.57,0,0,1-3.3,1.38,2.87,2.87,0,0,1-2.66-1.38,8.86,8.86,0,0,1-.82-4.38q0-3.25,1-4.47t3.6-1.22a12.56,12.56,0,0,1,3.07.34l-.14,1.06q-1.34-.13-2.85-.13a4.37,4.37,0,0,0-1.91.33,2.09,2.09,0,0,0-1,1.3,9.9,9.9,0,0,0-.32,2.9,8,8,0,0,0,.53,3.44,1.92,1.92,0,0,0,1.86,1,4.74,4.74,0,0,0,2.72-1.07v-4.29h1.38v6.38Z" transform="translate(-1.39)"/><path class="cls-3" d="M395.68,413.88l-.13-1a23.51,23.51,0,0,1,3.76-.35,3,3,0,0,1,2,.57A2.44,2.44,0,0,1,402,415v5.49h-1.07l-.16-1.28a5.55,5.55,0,0,1-1.4,1,3.91,3.91,0,0,1-1.82.43,2.46,2.46,0,0,1-1.7-.57,2,2,0,0,1-.63-1.61v-.85a1.8,1.8,0,0,1,.57-1.42,2.32,2.32,0,0,1,1.59-.5h3.25V415a1.36,1.36,0,0,0-.34-1,1.91,1.91,0,0,0-1.25-.3Q397.87,413.67,395.68,413.88Zm.91,3.94v.5a1.19,1.19,0,0,0,.29.89,1.29,1.29,0,0,0,.93.28,3.59,3.59,0,0,0,1.38-.29,4.63,4.63,0,0,0,1.42-.88v-1.57h-3a1,1,0,0,0-.78.29A1.17,1.17,0,0,0,396.59,417.81Z" transform="translate(-1.39)"/><path class="cls-3" d="M409.29,412.52l-.16,1.28h-.45a3.55,3.55,0,0,0-1.22.23,17.56,17.56,0,0,0-1.69.76v5.71h-1.36v-7.79h1.06l.14,1.23a5.56,5.56,0,0,1,3.33-1.42Z" transform="translate(-1.39)"/><path class="cls-3" d="M410.88,413.88l-.13-1a23.51,23.51,0,0,1,3.76-.35,3,3,0,0,1,2,.57,2.44,2.44,0,0,1,.66,1.93v5.49h-1.07l-.16-1.28a5.55,5.55,0,0,1-1.4,1,3.91,3.91,0,0,1-1.82.43,2.46,2.46,0,0,1-1.7-.57,2,2,0,0,1-.63-1.61v-.85a1.8,1.8,0,0,1,.57-1.42,2.32,2.32,0,0,1,1.59-.5h3.25V415a1.36,1.36,0,0,0-.34-1,1.91,1.91,0,0,0-1.25-.3Q413.07,413.67,410.88,413.88Zm.91,3.94v.5a1.19,1.19,0,0,0,.29.89,1.29,1.29,0,0,0,.93.28,3.59,3.59,0,0,0,1.38-.29,4.63,4.63,0,0,0,1.42-.88v-1.57h-3a1,1,0,0,0-.78.29A1.17,1.17,0,0,0,411.79,417.81Z" transform="translate(-1.39)"/><path class="cls-3" d="M426.86,413.46l-1.15.1A2.78,2.78,0,0,1,426,415a2.25,2.25,0,0,1-.75,1.9,4.33,4.33,0,0,1-2.59.58,7.43,7.43,0,0,1-1.62-.16.84.84,0,0,0-.18.81.79.79,0,0,0,.72.54l2.91.46a2.4,2.4,0,0,1,1.53.68,2.28,2.28,0,0,1,.44,1.51,2.09,2.09,0,0,1-.81,1.89,5.69,5.69,0,0,1-2.9.53,5.9,5.9,0,0,1-2.94-.52,2,2,0,0,1-.82-1.85,1.9,1.9,0,0,1,.29-1.1,2.74,2.74,0,0,1,1-.78,1.37,1.37,0,0,1-.54-1.23,1.56,1.56,0,0,1,.61-1.2,2.09,2.09,0,0,1-1-2,2.28,2.28,0,0,1,.74-1.92,4.38,4.38,0,0,1,2.6-.58,7,7,0,0,1,1.81.19h2.43Zm-3,6.67-2.66-.37a1.83,1.83,0,0,0-.82,1.49,1.1,1.1,0,0,0,.48,1.07,4.78,4.78,0,0,0,1.94.26,4.57,4.57,0,0,0,1.91-.26,1.1,1.1,0,0,0,.49-1.06,1,1,0,0,0-.25-.78A2.48,2.48,0,0,0,423.82,420.13Zm-2.75-4a4.14,4.14,0,0,0,3.23,0,1.57,1.57,0,0,0,0-2.22,4.16,4.16,0,0,0-3.24,0,1.56,1.56,0,0,0,0,2.22Z" transform="translate(-1.39)"/><path class="cls-3" d="M433.17,417.27h-3.63a2.63,2.63,0,0,0,.66,1.81,2.79,2.79,0,0,0,1.81.46,19.58,19.58,0,0,0,2.7-.19l.14.91a8.22,8.22,0,0,1-3,.43,3.74,3.74,0,0,1-2.87-.94,6.37,6.37,0,0,1,0-6.34,3.6,3.6,0,0,1,2.75-.9,4.11,4.11,0,0,1,2.54.63,2.29,2.29,0,0,1,.8,1.91Q435.05,417.27,433.17,417.27Zm-3.65-1.06h3.3q.85,0,.85-1.15a1.29,1.29,0,0,0-.45-1.07,2.55,2.55,0,0,0-1.47-.32,2.23,2.23,0,0,0-1.71.54A3.2,3.2,0,0,0,429.52,416.21Z" transform="translate(-1.39)"/><path class="cls-3" d="M350,318.51a5.22,5.22,0,0,1,6.79,0q1,1.26,1,4.47t-1,4.47a5.22,5.22,0,0,1-6.79,0q-1-1.26-1-4.47T350,318.51Zm5.66,1a3.11,3.11,0,0,0-4.51,0,10.11,10.11,0,0,0,0,7,3.11,3.11,0,0,0,4.51,0,10.11,10.11,0,0,0,0-7Z" transform="translate(-1.39)"/><path class="cls-3" d="M361.41,320.71v8a3.81,3.81,0,0,1-.4,1.73,3.71,3.71,0,0,1-1.1,1.33l-.75-.59a3.81,3.81,0,0,0,.9-2.46v-8Zm-1-3.31h.64q.4,0,.4.42v.91q0,.42-.4.42h-.64a.37.37,0,0,1-.42-.42v-.91A.37.37,0,0,1,360.42,317.4Z" transform="translate(-1.39)"/><path class="cls-3" d="M367.26,320.52a3.66,3.66,0,0,1,2.84.93,6.5,6.5,0,0,1,0,6.34,4.79,4.79,0,0,1-5.67,0,6.45,6.45,0,0,1,0-6.34A3.66,3.66,0,0,1,367.26,320.52Zm1.77,1.78a2.13,2.13,0,0,0-1.77-.62,2.1,2.1,0,0,0-1.76.62,5.84,5.84,0,0,0,0,4.64,2.1,2.1,0,0,0,1.76.62,2.13,2.13,0,0,0,1.77-.62,5.75,5.75,0,0,0,0-4.64Z" transform="translate(-1.39)"/><path class="cls-3" d="M375,321.78v4.58a1.1,1.1,0,0,0,.24.8,1.13,1.13,0,0,0,.82.24h1.18l.16,1a6.54,6.54,0,0,1-1.76.21,1.94,1.94,0,0,1-1.49-.54,2.2,2.2,0,0,1-.51-1.57v-4.75h-1.41v-1l1.41-.06V318.4H375v2.3h2.48v1.07Z" transform="translate(-1.39)"/><path class="cls-3" d="M379.18,321.88l-.13-1a23.5,23.5,0,0,1,3.76-.35,3,3,0,0,1,2,.57,2.44,2.44,0,0,1,.66,1.93v5.49h-1.07l-.16-1.28a5.58,5.58,0,0,1-1.4,1,3.91,3.91,0,0,1-1.82.43,2.45,2.45,0,0,1-1.7-.57,2.05,2.05,0,0,1-.63-1.61v-.85a1.79,1.79,0,0,1,.57-1.42,2.32,2.32,0,0,1,1.59-.5h3.25V323a1.36,1.36,0,0,0-.34-1,1.9,1.9,0,0,0-1.25-.3Q381.38,321.67,379.18,321.88Zm.91,3.94v.5a1.19,1.19,0,0,0,.29.89,1.29,1.29,0,0,0,.93.28,3.58,3.58,0,0,0,1.38-.29,4.62,4.62,0,0,0,1.42-.88v-1.57h-3a1,1,0,0,0-.78.29A1.18,1.18,0,0,0,380.1,325.81Z" transform="translate(-1.39)"/><path class="cls-3" d="M352.08,232.32h-1.36a7.57,7.57,0,0,1,.1,1.17v4h-1.39v-11h1.39v3.46a8.36,8.36,0,0,1-.1,1.26h1.34l3.36-4.72H357L353.74,231a5,5,0,0,1-.61.7v0a5.83,5.83,0,0,1,.69.77l3.36,5H355.6Z" transform="translate(-1.39)"/><path class="cls-3" d="M363.22,234.27h-3.63a2.63,2.63,0,0,0,.66,1.81,2.79,2.79,0,0,0,1.81.46,19.58,19.58,0,0,0,2.7-.19l.14.91a8.22,8.22,0,0,1-3,.43,3.74,3.74,0,0,1-2.87-.94,6.37,6.37,0,0,1,0-6.34,3.6,3.6,0,0,1,2.75-.9,4.11,4.11,0,0,1,2.54.63,2.29,2.29,0,0,1,.8,1.91Q365.1,234.27,363.22,234.27Zm-3.65-1.06h3.3q.85,0,.85-1.15a1.29,1.29,0,0,0-.45-1.07,2.55,2.55,0,0,0-1.47-.32,2.23,2.23,0,0,0-1.71.54A3.2,3.2,0,0,0,359.57,233.21Z" transform="translate(-1.39)"/><path class="cls-3" d="M369.07,230.78v4.58a1.1,1.1,0,0,0,.24.8,1.13,1.13,0,0,0,.82.24h1.18l.16,1a6.54,6.54,0,0,1-1.76.21,1.94,1.94,0,0,1-1.49-.54,2.2,2.2,0,0,1-.51-1.57v-4.75H366.3v-1l1.41-.06V227.4h1.36v2.3h2.48v1.07Z" transform="translate(-1.39)"/><path class="cls-3" d="M379.84,229.71v7.79h-1.09l-.1-1.12a5.66,5.66,0,0,1-3.36,1.33,1.89,1.89,0,0,1-2.13-2.14v-5.86h1.36v5.47a1.45,1.45,0,0,0,.27,1,1.28,1.28,0,0,0,1,.3,3,3,0,0,0,1.2-.26,10.92,10.92,0,0,0,1.52-.86v-5.7Z" transform="translate(-1.39)"/><path class="cls-3" d="M358.27,139.46h1.58a.52.52,0,0,1,.58.59l.46,10.45h-1.41l-.4-9.87h-.34l-2.46,8.14a.58.58,0,0,1-.61.48h-1.26a.61.61,0,0,1-.64-.48l-2.46-8.14H351l-.38,9.87H349.2l.43-10.45a.54.54,0,0,1,.59-.59h1.6a.58.58,0,0,1,.59.48l2.06,6.74c.06.19.15.48.25.86l.17.63h.29l.18-.7q.14-.52.23-.82l2.06-6.7A.58.58,0,0,1,358.27,139.46Z" transform="translate(-1.39)"/><path class="cls-3" d="M363.73,139.4h.64a.37.37,0,0,1,.42.42v.91a.37.37,0,0,1-.42.42h-.64a.37.37,0,0,1-.42-.42v-.91A.37.37,0,0,1,363.73,139.4Zm1,11.1h-1.34v-7.79h1.34Z" transform="translate(-1.39)"/><path class="cls-3" d="M368.66,139.3v9.06a1,1,0,0,0,.26.78,1.11,1.11,0,0,0,.8.26h.75l.16,1a3.53,3.53,0,0,1-1.42.21,1.86,1.86,0,0,1-1.39-.52,2,2,0,0,1-.51-1.46V139.3Z" transform="translate(-1.39)"/><path class="cls-3" d="M376.72,147.27h-3.63a2.63,2.63,0,0,0,.66,1.81,2.79,2.79,0,0,0,1.81.46,19.58,19.58,0,0,0,2.7-.19l.14.91a8.22,8.22,0,0,1-3,.43,3.74,3.74,0,0,1-2.87-.94,6.37,6.37,0,0,1,0-6.34,3.6,3.6,0,0,1,2.75-.9,4.11,4.11,0,0,1,2.54.63,2.29,2.29,0,0,1,.8,1.91Q378.61,147.27,376.72,147.27Zm-3.65-1.06h3.3q.85,0,.85-1.15a1.29,1.29,0,0,0-.45-1.07,2.55,2.55,0,0,0-1.47-.32,2.23,2.23,0,0,0-1.71.54A3.2,3.2,0,0,0,373.07,146.21Z" transform="translate(-1.39)"/><path class="cls-3" d="M387.52,150.5h-1.41v-8.75a4.93,4.93,0,0,1,.08-1l-2.7.85-.19-1,2.82-1.14h1.41Z" transform="translate(-1.39)"/><path class="cls-3" d="M390.38,140.77l-.1-1.09a14.75,14.75,0,0,1,3.36-.42,5.21,5.21,0,0,1,2.57.49,2,2,0,0,1,.82,1.9,4.24,4.24,0,0,1-.43,1.91,10.1,10.1,0,0,1-1.54,2.1l-3.17,3.54q.75-.06,1.79-.06h3.74v1.36h-7.25v-.88a.86.86,0,0,1,.21-.61l3.2-3.62a10.83,10.83,0,0,0,1.57-2,3.16,3.16,0,0,0,.45-1.64,1,1,0,0,0-.5-1,4,4,0,0,0-1.56-.22A19.71,19.71,0,0,0,390.38,140.77Z" transform="translate(-1.39)"/><path class="cls-3" d="M350.83,57.5h-1.41v-11h1.41Z" transform="translate(-1.39)"/><path class="cls-3" d="M355.81,53.6h-1.06a11.43,11.43,0,0,1,.08,1.25V57.5h-1.36V46.3h1.38v5a9.4,9.4,0,0,1-.08,1.33h1l2.46-2.9h1.58l-2.45,2.86a2,2,0,0,1-.54.53v0a2.08,2.08,0,0,1,.54.62l2.7,3.74h-1.58Z" transform="translate(-1.39)"/><path class="cls-3" d="M364.66,49.52a3.66,3.66,0,0,1,2.84.93,4.77,4.77,0,0,1,.82,3.17,4.77,4.77,0,0,1-.82,3.17,4.79,4.79,0,0,1-5.67,0,4.74,4.74,0,0,1-.83-3.17,4.74,4.74,0,0,1,.83-3.17A3.66,3.66,0,0,1,364.66,49.52Zm1.77,1.78a2.13,2.13,0,0,0-1.77-.62,2.11,2.11,0,0,0-1.76.62,4,4,0,0,0-.48,2.32,4,4,0,0,0,.48,2.32,2.11,2.11,0,0,0,1.76.62,2.13,2.13,0,0,0,1.77-.62,4,4,0,0,0,.49-2.32A4,4,0,0,0,366.42,51.29Z" transform="translate(-1.39)"/><path class="cls-3" d="M375.33,49.52l-.16,1.28h-.45a3.56,3.56,0,0,0-1.22.23,17.67,17.67,0,0,0-1.69.76V57.5h-1.36V49.71h1.06l.14,1.23A5.56,5.56,0,0,1,375,49.52Z" transform="translate(-1.39)"/><path class="cls-3" d="M380,49.52a3.66,3.66,0,0,1,2.84.93,4.77,4.77,0,0,1,.82,3.17,4.77,4.77,0,0,1-.82,3.17,4.79,4.79,0,0,1-5.67,0,4.74,4.74,0,0,1-.83-3.17,4.74,4.74,0,0,1,.83-3.17A3.66,3.66,0,0,1,380,49.52Zm1.77,1.78a2.13,2.13,0,0,0-1.77-.62,2.11,2.11,0,0,0-1.76.62,4,4,0,0,0-.48,2.32,4,4,0,0,0,.48,2.32,2.11,2.11,0,0,0,1.76.62,2.13,2.13,0,0,0,1.77-.62,4,4,0,0,0,.49-2.32A4,4,0,0,0,381.72,51.29Z" transform="translate(-1.39)"/><path class="cls-3" d="M392.4,46.3V57.5h-1.06l-.13-1.12a4.64,4.64,0,0,1-3.09,1.31,2.29,2.29,0,0,1-2.09-1,5.86,5.86,0,0,1-.65-3.1,5.31,5.31,0,0,1,.7-3.14,2.64,2.64,0,0,1,2.24-.92,5.45,5.45,0,0,1,2.77.72q-.06-.7-.06-1.54V46.3ZM391,55.44v-4.3a9.5,9.5,0,0,0-2.38-.43,1.66,1.66,0,0,0-1.46.59,4.28,4.28,0,0,0-.42,2.27,4.6,4.6,0,0,0,.41,2.31,1.52,1.52,0,0,0,1.38.63,2.57,2.57,0,0,0,1.1-.23A9.87,9.87,0,0,0,391,55.44Z" transform="translate(-1.39)"/><path class="cls-3" d="M401.54,49.71V57.5h-1.09l-.1-1.12A5.66,5.66,0,0,1,397,57.71a1.89,1.89,0,0,1-2.13-2.14V49.71h1.36v5.47a1.45,1.45,0,0,0,.27,1,1.28,1.28,0,0,0,1,.3,3,3,0,0,0,1.2-.26,10.92,10.92,0,0,0,1.52-.86v-5.7Z" transform="translate(-1.39)"/><path class="cls-3" d="M188.15,637.5h-1.41v-11h1.41Z" transform="translate(-1.39)"/><path class="cls-3" d="M197.45,626.3v11.2h-1.06l-.13-1.12a4.64,4.64,0,0,1-3.09,1.31,2.29,2.29,0,0,1-2.09-1,5.86,5.86,0,0,1-.65-3.1,5.31,5.31,0,0,1,.7-3.14,2.64,2.64,0,0,1,2.24-.92,5.44,5.44,0,0,1,2.77.72q-.06-.7-.06-1.54v-2.4Zm-1.36,9.14v-4.3a9.5,9.5,0,0,0-2.38-.43,1.66,1.66,0,0,0-1.46.59,4.28,4.28,0,0,0-.42,2.27,4.61,4.61,0,0,0,.41,2.31,1.52,1.52,0,0,0,1.38.63,2.57,2.57,0,0,0,1.1-.23A9.84,9.84,0,0,0,196.09,635.44Z" transform="translate(-1.39)"/><path class="cls-3" d="M200.38,626.4H201a.37.37,0,0,1,.42.42v.91a.37.37,0,0,1-.42.42h-.64a.37.37,0,0,1-.42-.42v-.91A.37.37,0,0,1,200.38,626.4Zm1,11.1H200v-7.79h1.34Z" transform="translate(-1.39)"/><path class="cls-3" d="M209,637.5h-1.41v-11H209Z" transform="translate(-1.39)"/><path class="cls-3" d="M216.57,629.52l-.16,1.28H216a3.55,3.55,0,0,0-1.22.23,17.62,17.62,0,0,0-1.69.76v5.71h-1.36v-7.79h1.06l.14,1.23a5.56,5.56,0,0,1,3.33-1.42Z" transform="translate(-1.39)"/><path class="cls-3" d="M221.19,629.52a3.66,3.66,0,0,1,2.84.93,6.5,6.5,0,0,1,0,6.34,4.79,4.79,0,0,1-5.67,0,6.45,6.45,0,0,1,0-6.34A3.66,3.66,0,0,1,221.19,629.52Zm1.77,1.78a2.13,2.13,0,0,0-1.77-.62,2.1,2.1,0,0,0-1.76.62,5.85,5.85,0,0,0,0,4.64,2.1,2.1,0,0,0,1.76.62,2.13,2.13,0,0,0,1.77-.62,5.76,5.76,0,0,0,0-4.64Z" transform="translate(-1.39)"/><path class="cls-3" d="M229.32,633.6h-1.06a11.56,11.56,0,0,1,.08,1.25v2.66H227V626.3h1.38v5a9.33,9.33,0,0,1-.08,1.33h1l2.46-2.9h1.58l-2.45,2.86a2,2,0,0,1-.54.53v0a2.08,2.08,0,0,1,.54.62l2.7,3.74H232Z" transform="translate(-1.39)"/><path class="cls-3" d="M238.17,629.52a3.66,3.66,0,0,1,2.84.93,6.5,6.5,0,0,1,0,6.34,4.79,4.79,0,0,1-5.67,0,6.45,6.45,0,0,1,0-6.34A3.66,3.66,0,0,1,238.17,629.52Zm1.77,1.78a2.13,2.13,0,0,0-1.77-.62,2.1,2.1,0,0,0-1.76.62,5.85,5.85,0,0,0,0,4.64,2.1,2.1,0,0,0,1.76.62,2.13,2.13,0,0,0,1.77-.62,5.76,5.76,0,0,0,0-4.64Z" transform="translate(-1.39)"/><path class="cls-2" d="M195.8,308.71v.19q3.57.33,5.1,2.44a10.31,10.31,0,0,1,1.53,6.1q0,4.83-2.46,6.59t-8.4,1.76q-8.91,0-13.5-.37v-32q4.13-.37,12-.37,6.4,0,8.86,1.74t2.46,6.61a8.78,8.78,0,0,1-1.32,5.27A5.69,5.69,0,0,1,195.8,308.71ZM185,306.48h5.15a5.53,5.53,0,0,0,3.55-.84q1-.83,1-3.29t-1-3.2a6.68,6.68,0,0,0-3.85-.79l-4.78,0Zm0,14h5.38q2.92,0,3.94-.86t1-3.5q0-2.88-1.07-3.87t-4.08-1H185Z" transform="translate(-1.39)"/><path class="cls-2" d="M232.88,325.41h-7.47L223,315.62a4.05,4.05,0,0,0-1.23-2.11,3.6,3.6,0,0,0-2.2-.58l-5,0v12.53h-7v-32q4.32-.42,12.2-.42,6.45,0,9.14,2t2.69,7.42a9.41,9.41,0,0,1-1.42,5.52,6.43,6.43,0,0,1-4.71,2.41v.23a5.77,5.77,0,0,1,4.55,4.83Zm-18.28-18h5.1q2.78,0,3.81-1t1-3.6q0-2.65-1-3.57t-3.83-.93l-5.1,0Z" transform="translate(-1.39)"/><path class="cls-2" d="M261,299.15h-9.56v26.26h-7.1V299.15h-9.56v-5.75H261Z" transform="translate(-1.39)"/><path class="cls-2" d="M181.63,342.86h-3.44v9.46h-2.56v-9.46h-3.44v-2.07h9.44Z" transform="translate(-1.39)"/><path class="cls-2" d="M190.77,350.33l.12,1.87q-1.57.17-5.35.17a2.62,2.62,0,0,1-1.84-.63,2.24,2.24,0,0,1-.7-1.7v-7a2.24,2.24,0,0,1,.7-1.7,2.62,2.62,0,0,1,1.84-.63q3.78,0,5.35.17l-.12,1.89h-4.43a.78.78,0,0,0-.6.2,1,1,0,0,0-.18.65v1.75h4.6v1.84h-4.6v2.22a1,1,0,0,0,.18.67.78.78,0,0,0,.6.2Z" transform="translate(-1.39)"/><path class="cls-2" d="M201.81,352.32h-2.69l-.87-3.53a1.46,1.46,0,0,0-.44-.76,1.29,1.29,0,0,0-.79-.21l-1.79,0v4.51h-2.51V340.79q1.55-.15,4.39-.15a5.59,5.59,0,0,1,3.29.74,3.17,3.17,0,0,1,1,2.67,3.39,3.39,0,0,1-.51,2,2.32,2.32,0,0,1-1.7.87V347a2.08,2.08,0,0,1,1.64,1.74Zm-6.58-6.47h1.84a2,2,0,0,0,1.37-.34,2.47,2.47,0,0,0,0-2.58,2.08,2.08,0,0,0-1.38-.33l-1.84,0Z" transform="translate(-1.39)"/><path class="cls-2" d="M212.72,340.79h2.46a.86.86,0,0,1,1,1l.45,10.58h-2.41l-.38-9.54h-.28l-1.74,7.14a.94.94,0,0,1-1,.82h-1.67a.94.94,0,0,1-1-.82l-1.75-7.14H206l-.33,9.54h-2.41l.42-10.58a.87.87,0,0,1,1-1h2.46a.94.94,0,0,1,1,.82l1.4,5.75q.13.55.3,1.62H210l.13-.69q.11-.6.18-.94l1.39-5.75A1,1,0,0,1,212.72,340.79Z" transform="translate(-1.39)"/><path class="cls-2" d="M221.23,352.32h-2.54V340.79h2.54Z" transform="translate(-1.39)"/><path class="cls-2" d="M233.29,340.79V351.4a.81.81,0,0,1-.9.92H230.8a.93.93,0,0,1-.6-.18,1.71,1.71,0,0,1-.42-.58l-3-6.15a10.64,10.64,0,0,1-.7-1.79h-.18a13.29,13.29,0,0,1,.12,1.84v6.85h-2.42V341.71a.81.81,0,0,1,.92-.92H226a.93.93,0,0,1,.6.18,1.73,1.73,0,0,1,.42.58l2.92,6q.42.83.84,1.85H231q-.1-1.3-.1-1.94v-6.63Z" transform="translate(-1.39)"/><path class="cls-2" d="M241.88,349.3h-4l-.84,3h-2.61l3.33-10.86a.8.8,0,0,1,.32-.49.94.94,0,0,1,.57-.18h2.41a.82.82,0,0,1,.89.67l3.33,10.86h-2.59Zm-.55-2-1-3.53q-.2-.83-.23-1.09h-.45l-.12.53q-.08.37-.13.55l-1,3.53Z" transform="translate(-1.39)"/><path class="cls-2" d="M249,340.79v8.61a.87.87,0,0,0,.21.65,1,1,0,0,0,.69.2h4l.12,1.94a48.33,48.33,0,0,1-4.88.18,2.66,2.66,0,0,1-2-.67,2.45,2.45,0,0,1-.65-1.79v-9.12Z" transform="translate(-1.39)"/><path class="cls-2" d="M259.64,348l-2.32-.82a3.17,3.17,0,0,1-2.39-3.37,2.92,2.92,0,0,1,.93-2.55,6,6,0,0,1,3.27-.64,14,14,0,0,1,3.79.45l-.17,1.74q-1.45,0-3.61,0a3.32,3.32,0,0,0-1.34.18q-.33.17-.33.88a1.12,1.12,0,0,0,.25.82,2.54,2.54,0,0,0,1,.49l2.19.75a3.64,3.64,0,0,1,1.89,1.28,3.68,3.68,0,0,1,.55,2.11,3.1,3.1,0,0,1-.94,2.63,5.87,5.87,0,0,1-3.34.69,18.7,18.7,0,0,1-4-.43l.15-1.84,3.81.08a2.84,2.84,0,0,0,1.36-.22,1,1,0,0,0,.34-.9,1.18,1.18,0,0,0-.23-.83A2.13,2.13,0,0,0,259.64,348Z" transform="translate(-1.39)"/></g></g></svg>