<?xml version="1.0" encoding="UTF-8"?>
<svg width="72px" height="73px" viewBox="0 0 72 73" version="1.1" xmlns="http://www.w3.org/2000/svg" xmlns:xlink="http://www.w3.org/1999/xlink">
    <!-- Generator: Sketch 49 (51002) - http://www.bohemiancoding.com/sketch -->
    <title>target - simple-line-icons</title>
    <desc>Created with Sketch.</desc>
    <defs></defs>
    <g id="Page-1" stroke="none" stroke-width="1" fill="none" fill-rule="evenodd">
        <g id="Landing" transform="translate(-140.000000, -3638.000000)" fill="#76C91C">
            <path d="M209.75,3672.25 C210.359378,3672.25 210.886717,3672.47265 211.332031,3672.91797 C211.777346,3673.36328 212,3673.89062 212,3674.5 C212,3675.10938 211.777346,3675.63672 211.332031,3676.08203 C210.886717,3676.52735 210.359378,3676.75 209.75,3676.75 L202.929688,3676.75 C202.648436,3680.03127 201.816413,3683.11327 200.433594,3685.99609 C199.050774,3688.87892 197.269542,3691.41015 195.089844,3693.58984 C192.910145,3695.76954 190.378921,3697.55077 187.496094,3698.93359 C184.613267,3700.31641 181.531266,3701.125 178.25,3701.35938 L178.25,3708.25 C178.25,3708.85938 178.027346,3709.38672 177.582031,3709.83203 C177.136717,3710.27735 176.609378,3710.5 176,3710.5 C175.390622,3710.5 174.863283,3710.27735 174.417969,3709.83203 C173.972654,3709.38672 173.75,3708.85938 173.75,3708.25 L173.75,3701.35938 C170.468734,3701.125 167.386733,3700.31641 164.503906,3698.93359 C161.621079,3697.55077 159.089855,3695.76954 156.910156,3693.58984 C154.730458,3691.41015 152.949226,3688.87892 151.566406,3685.99609 C150.183587,3683.11327 149.351564,3680.03127 149.070312,3676.75 L142.25,3676.75 C141.640622,3676.75 141.113283,3676.52735 140.667969,3676.08203 C140.222654,3675.63672 140,3675.10938 140,3674.5 C140,3673.89062 140.222654,3673.36328 140.667969,3672.91797 C141.113283,3672.47265 141.640622,3672.25 142.25,3672.25 L149.070312,3672.25 C149.351564,3668.96873 150.183587,3665.88673 151.566406,3663.00391 C152.949226,3660.12108 154.730458,3657.58985 156.910156,3655.41016 C159.089855,3653.23046 161.621079,3651.44923 164.503906,3650.06641 C167.386733,3648.68359 170.468734,3647.875 173.75,3647.64062 L173.75,3640.75 C173.75,3640.14062 173.972654,3639.61328 174.417969,3639.16797 C174.863283,3638.72265 175.390622,3638.5 176,3638.5 C176.609378,3638.5 177.136717,3638.72265 177.582031,3639.16797 C178.027346,3639.61328 178.25,3640.14062 178.25,3640.75 L178.25,3647.64062 C181.531266,3647.875 184.613267,3648.68359 187.496094,3650.06641 C190.378921,3651.44923 192.910145,3653.23046 195.089844,3655.41016 C197.269542,3657.58985 199.050774,3660.12108 200.433594,3663.00391 C201.816413,3665.88673 202.648436,3668.96873 202.929688,3672.25 L209.75,3672.25 Z M173.75,3652.14062 C171.078112,3652.375 168.582043,3653.0664 166.261719,3654.21484 C163.941395,3655.36329 161.890634,3656.82812 160.109375,3658.60938 C158.328116,3660.39063 156.863287,3662.44139 155.714844,3664.76172 C154.566401,3667.08204 153.875001,3669.57811 153.640625,3672.25 L173.75,3672.25 L173.75,3652.14062 Z M153.640625,3676.75 C153.875001,3679.42189 154.566401,3681.91796 155.714844,3684.23828 C156.863287,3686.55861 158.328116,3688.60937 160.109375,3690.39062 C161.890634,3692.17188 163.941395,3693.63671 166.261719,3694.78516 C168.582043,3695.9336 171.078112,3696.625 173.75,3696.85938 L173.75,3676.75 L153.640625,3676.75 Z M178.25,3696.85938 C180.921888,3696.625 183.417957,3695.9336 185.738281,3694.78516 C188.058605,3693.63671 190.109366,3692.17188 191.890625,3690.39062 C193.671884,3688.60937 195.136713,3686.55861 196.285156,3684.23828 C197.433599,3681.91796 198.124999,3679.42189 198.359375,3676.75 L178.25,3676.75 L178.25,3696.85938 Z M178.25,3672.25 L198.359375,3672.25 C198.124999,3669.57811 197.433599,3667.08204 196.285156,3664.76172 C195.136713,3662.44139 193.671884,3660.39063 191.890625,3658.60938 C190.109366,3656.82812 188.058605,3655.36329 185.738281,3654.21484 C183.417957,3653.0664 180.921888,3652.375 178.25,3652.14062 L178.25,3672.25 Z" id="target---simple-line-icons"></path>
        </g>
    </g>
</svg>